<?xml version="1.0" encoding="UTF-8" standalone="no"?>
<!-- Created with Inkscape (http://www.inkscape.org/) -->

<svg
   width="132.29167mm"
   height="132.29167mm"
   viewBox="0 0 132.29167 132.29168"
   version="1.1"
   id="svg1"
   inkscape:version="1.4.3 (0d15f75, 2025-12-25)"
   sodipodi:docname="favicon.svg"
   xml:space="preserve"
   inkscape:export-filename="MyLogo.png"
   inkscape:export-xdpi="95.999992"
   inkscape:export-ydpi="95.999992"
   xmlns:inkscape="http://www.inkscape.org/namespaces/inkscape"
   xmlns:sodipodi="http://sodipodi.sourceforge.net/DTD/sodipodi-0.dtd"
   xmlns="http://www.w3.org/2000/svg"
   xmlns:svg="http://www.w3.org/2000/svg"><sodipodi:namedview
     id="namedview1"
     pagecolor="#ffffff"
     bordercolor="#000000"
     borderopacity="0.25"
     inkscape:showpageshadow="2"
     inkscape:pageopacity="0.0"
     inkscape:pagecheckerboard="0"
     inkscape:deskcolor="#d1d1d1"
     inkscape:document-units="mm"
     inkscape:zoom="1.1108124"
     inkscape:cx="188.6007"
     inkscape:cy="248.01668"
     inkscape:window-width="1920"
     inkscape:window-height="1111"
     inkscape:window-x="-9"
     inkscape:window-y="-9"
     inkscape:window-maximized="1"
     inkscape:current-layer="layer1"
     showgrid="true"
     showguides="false"
     inkscape:export-bgcolor="#ffffffff"><inkscape:grid
       id="grid1"
       units="mm"
       originx="0"
       originy="0"
       spacingx="0.99999996"
       spacingy="1"
       empcolor="#0099e5"
       empopacity="0.30196078"
       color="#0099e5"
       opacity="0.14901961"
       empspacing="5"
       enabled="true"
       visible="true"
       dotted="false"
       snapvisiblegridlinesonly="true" /></sodipodi:namedview><defs
     id="defs1" /><g
     inkscape:label="Layer 1"
     inkscape:groupmode="layer"
     id="layer1"><g
       id="g1"
       transform="translate(2.0861217,1.5394429)"><path
         id="path6"
         style="fill:#ffffff;stroke-width:0.208733"
         d="m 103.03276,11.75773 c 0.23688,0.479957 0.0765,1.286954 -0.43056,2.165024 -0.36399,0.630423 -0.46677,1.029734 -0.35466,1.377738 0.17716,0.549984 0.89853,1.046797 1.34589,0.926929 0.4438,-0.118918 1.96491,0.786995 2.0838,1.241025 0.0563,0.214851 0.0897,0.871486 0.0744,1.459186 -0.0152,0.587705 0.0191,1.175282 0.0762,1.30573 0.23999,0.546833 0.98882,0.7021 2.13908,0.443533 2.29486,-0.515859 3.43222,0.619108 2.81872,2.81278 -0.29741,1.063382 -0.27017,1.139479 0.71994,2.011015 0.37504,0.330124 0.4752,0.614843 0.38423,1.092438 -0.16228,0.852246 -0.69569,1.267384 -2.00011,1.556644 l -1.04381,0.231465 -0.067,0.851419 -0.067,0.851422 1.32861,0.59891 c 1.30015,0.586098 1.33353,0.617359 1.55951,1.460689 0.19688,0.734806 0.15207,0.998303 -0.30414,1.788494 -0.66213,1.146846 -0.74846,2.225726 -0.20324,2.540497 0.21781,0.125762 0.82277,0.296994 1.34436,0.380518 0.89373,0.143121 0.95817,0.18248 1.11966,0.683798 0.0943,0.292565 0.0634,0.718868 -0.0686,0.947336 -0.39916,0.691392 -0.36925,1.483178 0.0792,2.095233 0.57252,0.781441 0.24767,1.545648 -0.82176,1.93323 -1.00112,0.362821 -1.11369,0.580648 -0.88707,1.716493 0.226,1.132712 0.0751,1.430223 -0.87472,1.723797 -0.97993,0.302896 -1.28544,0.889279 -0.90143,1.730112 0.17006,0.372331 0.4279,0.745499 0.57298,0.829265 0.38929,0.224762 0.69935,1.599069 0.4559,2.020752 -0.11591,0.200759 -0.5773,0.518088 -1.02529,0.705177 -1.20848,0.504673 -1.38887,1.136955 -0.66335,2.325153 0.32386,0.530364 0.61019,1.227672 0.63631,1.549573 0.0469,0.578516 -0.004,0.664638 -1.39414,2.313113 -0.35717,0.42382 -0.40081,0.645003 -0.22282,1.128706 0.12175,0.330876 0.29966,0.653838 0.39535,0.717689 0.39234,0.261767 0.63638,1.582994 0.44315,2.399073 -0.16197,0.684074 -0.37136,1.049548 -0.97138,1.695431 -0.88971,0.957734 -1.79102,1.319709 -3.11492,1.250996 -1.19744,-0.06214 -1.52262,0.241606 -1.681,1.570252 -0.14329,1.202253 -0.36055,1.669509 -0.94499,2.032519 -1.22022,0.757881 -2.648332,0.606121 -4.532366,-0.481628 -1.198995,-0.692237 -1.535473,-0.805814 -2.010288,-0.678587 -0.815185,0.218427 -0.994236,0.682654 -0.727606,1.886452 0.176366,0.796337 0.141982,1.213638 -0.139863,1.696981 -0.436835,0.749131 -0.672579,0.893003 -1.416193,0.864225 -0.405949,-0.01571 -0.66188,-0.154161 -0.991631,-0.536437 -0.983935,-1.140645 -2.035131,-1.392782 -2.493889,-0.598182 -0.409617,0.709478 -1.447564,0.956231 -2.198531,0.522659 -0.54729,-0.315976 -0.727269,-0.600284 -0.961864,-1.519427 -0.367437,-1.439619 -0.75122,-1.539893 -2.169185,-1.233054 -0.748949,0.162069 -2.75963,-0.08235 -4.591167,-1.367577 -1.848284,-1.296969 -3.519312,-3.634862 -4.675399,-3.474287 -4.105317,0.570212 -3.40383,5.767439 -6.564817,8.378518 -0.854133,0.705542 -13.710222,-8.950208 -13.710222,-8.950208 0,0 2.310693,-4.536904 1.93805,-7.428423 -0.324739,-2.519805 -2.498951,-3.617087 -2.939074,-3.230442 -0.72823,0.63975 -1.868741,0.955759 -2.381333,0.659814 -0.185054,-0.106839 -0.613735,-0.564924 -0.95262,-1.01796 l -0.616151,-0.8237 -0.905194,0.06586 c -0.497857,0.03623 -1.090766,-0.04128 -1.317579,-0.172226 -0.608317,-0.351213 -0.736392,-1.354145 -0.309062,-2.420197 0.481682,-1.201637 0.176917,-1.65292 -1.365599,-2.022111 -1.453069,-0.347785 -2.224209,-1.154538 -2.330209,-2.437829 -0.06465,-0.782583 0.04039,-1.127468 0.681492,-2.237901 0.416849,-0.722007 0.764909,-1.530052 0.773467,-1.795659 0.01412,-0.438736 -0.09857,-0.533457 -1.231756,-1.035321 -1.125013,-0.498244 -1.266433,-0.615792 -1.442333,-1.198841 -0.107262,-0.355543 -0.111146,-0.91067 -0.0086,-1.233624 0.232429,-0.732161 -0.05008,-1.201765 -1.081068,-1.797005 -0.655649,-0.378542 -0.810971,-0.578165 -0.83925,-1.078624 -0.01908,-0.337761 0.07861,-0.810379 0.217113,-1.05026 0.291386,-0.504694 0.181832,-0.913724 -0.394179,-1.471709 -0.225253,-0.218207 -0.483073,-0.709901 -0.572932,-1.092652 -0.205403,-0.874925 0.42359,-2.046543 1.433508,-2.67018 0.931295,-0.575091 1.120975,-1.27002 0.745249,-2.730374 -0.16133,-0.627037 -0.274228,-1.173141 -0.250888,-1.213566 0.126786,-0.219601 0.981702,-0.627372 1.396901,-0.666285 0.40669,-0.03811 0.584884,-0.245729 1.171781,-1.365263 l 0.692147,-1.320306 1.244557,0.349165 1.244556,0.349165 0.626472,-0.955715 c 0.344556,-0.525644 0.773034,-1.009959 0.952169,-1.07626 0.181982,-0.06735 0.708979,0.100736 1.194288,0.380933 0.723044,0.417451 0.977446,0.457918 1.518237,0.24149 0.357308,-0.142995 0.693893,-0.336624 0.74797,-0.430284 0.113983,-0.197428 -0.162333,-1.23118 -0.763226,-2.855371 -0.632515,-1.709664 -0.718152,-2.093364 -0.536897,-2.405596 0.219377,-0.377611 1.510854,-1.073986 1.743272,-0.939799 0.100881,0.05825 0.428894,0.04012 0.728908,-0.04027 0.453863,-0.121611 0.632025,-0.332484 1.060763,-1.25551 0.622925,-1.3410825 1.067328,-1.5710535 3.487076,-1.8045245 1.803721,-0.17403 2.174155,-0.0373 2.890464,1.0669465 0.637458,0.982684 1.218814,1.314658 1.911489,1.091534 0.491281,-0.158258 0.558662,-0.253098 0.637498,-0.897319 0.04849,-0.396201 0.268648,-1.0499955 0.489255,-1.4528835 0.390631,-0.713371 0.427276,-0.727132 1.402572,-0.526369 1.466565,0.301887 1.78819,0.194693 2.294819,-0.764845 0.503012,-0.9526799 0.817351,-1.0340841 1.807215,-0.468013 1.146533,0.65568 2.024744,-0.247734 1.653103,-1.7005395 -0.325809,-1.2736555 -0.07784,-1.4792721 1.387148,-1.1502086 l 0.960101,0.2156566 0.674149,-1.0402146 c 0.525188,-0.810362 0.805801,-1.0657853 1.269948,-1.1559444 0.737659,-0.1432873 1.567105,0.4702666 1.839885,1.3609952 0.296854,0.9693526 0.804211,1.3374587 1.589342,1.1531383 0.374884,-0.088006 0.78038,-0.3311016 0.901107,-0.540207 0.317564,-0.5500353 1.109147,-0.8581906 1.741481,-0.6779382 0.395109,0.1126303 0.661855,0.3814407 0.955998,0.9630713 0.604487,1.1955614 0.831987,1.4014759 1.419376,1.284703 0.290326,-0.057714 1.07074,-0.5541487 1.734247,-1.1031788 1.380949,-1.1426977 2.736742,-1.6662051 3.369318,-1.3009877 0.239907,0.1385109 0.519099,0.6177454 0.634751,1.0895472 0.266572,1.0875057 0.966478,1.5137994 2.014187,1.2267998 1.2109,-0.3316987 2.153229,0.3078463 2.504417,1.6997084 0.355161,1.40765 0.982667,1.727979 2.047671,1.045302 1.056498,-0.677217 1.793558,-0.231796 2.234431,1.3503085 0.176113,0.631922 0.435529,1.215544 0.576489,1.296933 0.140978,0.08139 0.745224,-0.0036 1.342804,-0.188838 1.04124,-0.32279 1.72201,-0.194539 2.00439,0.377597 z m -32.190756,57.53104 -14.30556,24.777963 -0.02576,0.708799 c -0.01416,0.389846 0.05946,0.79367 0.163616,0.897385 0.104161,0.103759 0.160041,0.239394 0.124185,0.301494 -0.03586,0.06214 0.0235,0.164118 0.131889,0.226698 0.10839,0.06259 0.25414,0.300109 0.323885,0.527856 0.06974,0.227735 0.231522,0.474527 0.35951,0.548417 0.127989,0.0739 0.313649,0.41117 0.412574,0.74949 0.09893,0.33834 0.257616,0.66004 0.352644,0.71489 0.09503,0.0549 0.139565,0.15729 0.09897,0.22759 -0.04058,0.0703 -0.0027,0.17063 0.08431,0.22295 0.087,0.0522 0.309927,0.56278 0.495475,1.134358 0.185548,0.57158 0.408513,1.08206 0.495475,1.13437 0.087,0.0523 0.116606,0.16703 0.06587,0.25492 -0.05072,0.088 0.02601,0.45308 0.170564,0.81155 0.144543,0.35847 0.294843,0.86196 0.334,1.11885 0.03915,0.25688 0.157326,0.98208 0.2626,1.61151 0.105275,0.62944 0.181743,1.34847 0.169929,1.59786 -0.01182,0.24936 0.01127,0.60789 0.0513,0.79673 0.09678,0.45657 0.03358,1.73957 -0.09683,1.96545 -0.05704,0.0989 -0.04621,0.21287 0.0241,0.25345 0.07031,0.0406 0.06141,0.18883 -0.01978,0.32945 -0.08118,0.1406 -0.09007,0.28884 -0.01977,0.32944 0.07031,0.0406 0.06141,0.18884 -0.01978,0.32943 -0.08118,0.14062 -0.09008,0.28886 -0.01977,0.32945 0.07031,0.0406 0.06141,0.18885 -0.01978,0.32945 -0.08118,0.1406 -0.09008,0.28885 -0.01977,0.32945 0.07031,0.0406 -0.003,0.30047 -0.163016,0.57754 -0.159961,0.27704 -0.253842,0.57249 -0.208626,0.65654 0.04522,0.084 0.0173,0.26523 -0.06203,0.40264 -0.07934,0.13741 -0.149081,0.38021 -0.154992,0.53957 -0.0059,0.15936 -0.18401,0.74546 -0.395766,1.3025 -0.211757,0.55703 -0.351358,1.07533 -0.310221,1.15178 0.104117,0.19351 -2.665296,4.96469 -2.885555,4.97129 -0.0954,0.003 -0.288155,0.20391 -0.428373,0.44677 -0.140216,0.24287 -0.364521,0.51149 -0.49845,0.59693 -0.133929,0.0855 -0.461684,0.37451 -0.728343,0.64237 -0.266656,0.26786 -0.59441,0.55692 -0.728341,0.64236 -0.133931,0.0855 -0.327436,0.30072 -0.430009,0.47838 -0.188871,0.32714 -0.315738,0.43228 -1.090859,0.90406 -0.237103,0.14432 -0.893897,0.5704 -1.459538,0.94685 -0.565646,0.37646 -1.079167,0.69352 -1.141162,0.70459 -0.271242,0.0485 -1.149102,0.51529 -1.228902,0.6535 -0.12964,0.22454 -5.881405,1.71771 -6.10948,1.58604 -0.107242,-0.062 -0.228193,-0.0551 -0.268782,0.0152 -0.04058,0.0702 -0.137396,0.0911 -0.215125,0.0462 -0.07773,-0.0449 -0.395247,-0.0365 -0.705593,0.0188 -0.310348,0.0551 -0.616119,0.0704 -0.679494,0.0338 -0.06568,-0.0379 1.155421,-2.31867 2.840364,-5.30513 1.625574,-2.88125 3.076995,-5.54612 3.225379,-5.92196 0.340534,-0.86251 0.390921,-2.12233 0.126886,-3.17256 -0.194495,-0.77364 -0.818851,-2.09725 -1.053067,-2.23248 -0.09711,-0.0559 -0.229945,-0.26696 -0.2952,-0.46868 -0.06526,-0.20172 -0.229702,-0.53971 -0.365438,-0.75107 -0.135737,-0.21139 -0.219196,-0.43213 -0.185466,-0.49056 0.03373,-0.0584 -0.02572,-0.15648 -0.13214,-0.21793 -0.246648,-0.14239 -0.555266,-0.66085 -0.656919,-1.10359 -0.04342,-0.18911 -0.172858,-0.39806 -0.287643,-0.46432 -0.114782,-0.0663 -0.184237,-0.16389 -0.154345,-0.21693 0.06345,-0.11287 -0.378023,-0.77215 -0.604834,-0.90311 -0.08559,-0.0494 -0.147931,-0.14738 -0.138563,-0.21774 0.03024,-0.22706 -0.701689,-1.63082 -0.914332,-1.75358 -0.113302,-0.0654 -0.263067,-0.30528 -0.332808,-0.53301 -0.175709,-0.57376 -1.358349,-1.25655 -2.015717,-1.16377 -0.255129,0.036 -0.540527,0.0229 -0.634216,-0.0291 -0.188672,-0.10477 -1.778442,-0.0151 -1.940158,0.10934 -0.05625,0.0433 -0.181991,0.0327 -0.279447,-0.0236 -0.205319,-0.11854 -1.132089,-0.14305 -2.202806,-0.0582 -0.411101,0.0326 -0.837753,0.007 -0.948118,-0.0567 -0.110365,-0.0637 -0.233868,-0.0583 -0.274457,0.012 -0.04058,0.0702 -0.149233,0.0842 -0.241431,0.031 -0.09219,-0.0532 -0.33731,-0.0604 -0.544697,-0.0162 -0.20739,0.0442 -0.676014,0.0671 -1.041393,0.0507 -2.014744,-0.0904 -2.962551,0.16594 -4.406831,1.19233 -0.986327,0.70093 -1.217522,1.03873 -4.055046,5.92468 -1.569583,2.70266 -3.001301,5.0791 -3.181611,5.28098 l -0.327842,0.36704 -0.312486,-0.63954 c -0.171868,-0.35175 -0.304418,-0.69779 -0.294551,-0.76898 0.0098,-0.0712 -0.0503,-0.16886 -0.133709,-0.21702 -0.190663,-0.11011 -0.756392,-1.76607 -1.082054,-3.16738 -0.136344,-0.58669 -0.349412,-1.45545 -0.473478,-1.93057 -0.124071,-0.47513 -0.188321,-0.9284 -0.142782,-1.00728 0.07604,-0.13171 0.03742,-1.1311 -0.05344,-1.38247 -0.0214,-0.0593 -0.0035,-0.6625 0.03962,-1.34058 0.04319,-0.67808 0.0838,-1.45993 0.09023,-1.73741 0.02132,-0.91992 0.04927,-1.07069 0.269058,-1.45138 0.119922,-0.20772 0.181044,-0.44642 0.135828,-0.53045 -0.04522,-0.084 -0.0032,-0.28982 0.09358,-0.45727 0.09668,-0.16746 0.138789,-0.37323 0.09357,-0.45727 -0.04522,-0.084 0.0135,-0.31857 0.130473,-0.52118 0.116976,-0.20261 0.175688,-0.43714 0.130471,-0.52117 -0.04522,-0.084 0.0467,-0.3761 0.204271,-0.649 0.157565,-0.272908 0.249487,-0.564958 0.20427,-0.648998 -0.05046,-0.0939 0.498778,-1.1591 1.421944,-2.758086 0.923165,-1.598966 1.571147,-2.607273 1.677589,-2.610476 0.0954,-0.0034 0.302349,-0.228482 0.459915,-0.501402 0.157566,-0.27291 0.364528,-0.498537 0.459915,-0.501404 0.0954,-0.0034 0.269142,-0.170969 0.386117,-0.373578 0.116977,-0.20261 0.290729,-0.370723 0.386118,-0.373579 0.0954,-0.0034 0.252536,-0.142217 0.349217,-0.309672 0.09668,-0.167454 0.25383,-0.306804 0.349218,-0.309672 0.0954,-0.0034 0.269141,-0.170968 0.386116,-0.373577 0.116978,-0.202611 0.29073,-0.370723 0.386119,-0.373579 0.0954,-0.0034 0.254496,-0.14561 0.353572,-0.317213 0.09907,-0.171605 0.228061,-0.284347 0.286633,-0.250529 0.118759,0.06862 1.775538,-0.960098 1.904585,-1.182523 0.0452,-0.07787 0.370703,-0.2435 0.723341,-0.367989 0.35264,-0.124478 0.682808,-0.298146 0.733712,-0.385929 0.0509,-0.0878 0.150067,-0.126397 0.22037,-0.08579 0.07031,0.04061 0.169405,0.0023 0.220226,-0.08591 0.05082,-0.0878 0.342197,-0.245553 0.647498,-0.350496 0.305303,-0.104985 0.82091,-0.305765 1.145796,-0.446276 0.938515,-0.405888 4.727558,-1.360865 4.931738,-1.242981 0.101897,0.0588 0.218484,0.04942 0.259073,-0.02087 0.04058,-0.07028 0.149235,-0.08423 0.24143,-0.03102 0.0922,0.05321 0.357532,0.05299 0.589633,-4.35e-4 0.232098,-0.05344 0.473008,-0.06772 0.535354,-0.0318 0.06235,0.03603 0.283885,0.01005 0.492308,-0.05667 0.208427,-0.06717 0.444851,-0.08401 0.525393,-0.03748 0.219649,0.126821 1.010843,0.17609 1.075366,0.06695 0.03095,-0.05243 0.148379,-0.04217 0.260863,0.02276 0.333252,0.192401 1.552107,-0.208701 1.767414,-0.581633 0.105533,-0.182784 0.249396,-0.299127 0.319699,-0.258538 0.08477,0.04894 14.403458,-24.652328 14.403458,-24.652328 0,0 14.60856,8.349303 14.54185,8.46485 z" /><path
         id="path1"
         style="fill:#000000;stroke-width:0.208733"
         d="m 100.30582,9.0848616 c 0.23689,0.4799577 0.0765,1.2869544 -0.430557,2.1650244 -0.36399,0.630423 -0.466767,1.029734 -0.35466,1.377738 0.17716,0.549984 0.898527,1.046797 1.345897,0.926929 0.4438,-0.118918 1.96492,0.786995 2.08381,1.241025 0.0563,0.214851 0.0897,0.871486 0.0744,1.459186 -0.0152,0.587705 0.0191,1.175282 0.0762,1.30573 0.23999,0.546833 0.98883,0.7021 2.13909,0.443533 2.29486,-0.515859 3.43222,0.619108 2.81872,2.81278 -0.29741,1.063382 -0.27017,1.139479 0.71994,2.011015 0.37504,0.330124 0.4752,0.614843 0.38423,1.092438 -0.16228,0.852246 -0.69569,1.267384 -2.00011,1.556644 l -1.04381,0.231465 -0.067,0.851419 -0.067,0.851422 1.32861,0.59891 c 1.30015,0.586098 1.33353,0.617359 1.55951,1.460689 0.19688,0.734806 0.15207,0.998303 -0.30414,1.788494 -0.66213,1.146846 -0.74846,2.225726 -0.20324,2.540497 0.21781,0.125762 0.82277,0.296994 1.34436,0.380518 0.89373,0.143121 0.95817,0.18248 1.11966,0.683798 0.0943,0.292565 0.0634,0.718868 -0.0686,0.947336 -0.39916,0.691392 -0.36925,1.483178 0.0792,2.095233 0.57252,0.781441 0.24767,1.545648 -0.82176,1.93323 -1.00112,0.362821 -1.11369,0.580648 -0.88707,1.716493 0.226,1.132712 0.0751,1.430223 -0.87472,1.723797 -0.97993,0.302896 -1.28544,0.889279 -0.90143,1.730112 0.17006,0.372331 0.4279,0.745499 0.57298,0.829265 0.38929,0.224762 0.69935,1.599069 0.4559,2.020752 -0.11591,0.200759 -0.5773,0.518088 -1.02529,0.705177 -1.20848,0.504673 -1.38887,1.136955 -0.66335,2.325153 0.32386,0.530364 0.61019,1.227672 0.63631,1.549573 0.0469,0.578516 -0.004,0.664638 -1.39414,2.313113 -0.35717,0.42382 -0.40081,0.645003 -0.22282,1.128706 0.12175,0.330876 0.29966,0.653838 0.39535,0.717689 0.39234,0.261767 0.63638,1.582994 0.44315,2.399073 -0.16197,0.684074 -0.37136,1.049548 -0.97138,1.695431 -0.88971,0.957734 -1.79102,1.319709 -3.11493,1.250996 -1.19745,-0.06214 -1.52263,0.241606 -1.68101,1.570252 -0.14329,1.202253 -0.36056,1.669509 -0.944997,2.032519 -1.220214,0.757881 -2.64833,0.606121 -4.532364,-0.481628 -1.198995,-0.692237 -1.535473,-0.805814 -2.010288,-0.678587 -0.815185,0.218427 -0.994236,0.682654 -0.727606,1.886452 0.176366,0.796337 0.141982,1.213638 -0.139863,1.696981 -0.436835,0.749131 -0.672579,0.893003 -1.416193,0.864225 -0.405949,-0.01571 -0.66188,-0.154161 -0.991631,-0.536437 -0.983935,-1.140645 -2.035131,-1.392782 -2.493889,-0.598182 -0.409617,0.709478 -1.447564,0.956231 -2.198531,0.522659 -0.54729,-0.315976 -0.727269,-0.600284 -0.961864,-1.519427 -0.367437,-1.439619 -0.75122,-1.539893 -2.169185,-1.233054 -0.748949,0.162069 -2.75963,-0.08235 -4.591167,-1.367577 -1.848284,-1.296969 -3.519312,-3.634862 -4.675399,-3.474287 -4.105317,0.570212 -3.40383,5.767439 -6.564817,8.378518 -0.854133,0.705542 -13.710222,-8.950208 -13.710222,-8.950208 0,0 2.310693,-4.536904 1.93805,-7.428423 -0.324739,-2.519805 -2.498951,-3.617087 -2.939074,-3.230442 -0.72823,0.63975 -1.868741,0.955759 -2.381333,0.659814 -0.185054,-0.106839 -0.613735,-0.564924 -0.95262,-1.01796 l -0.616151,-0.8237 -0.905194,0.06586 c -0.497857,0.03623 -1.090766,-0.04128 -1.317579,-0.172226 -0.608317,-0.351213 -0.736392,-1.354145 -0.309062,-2.420197 0.481682,-1.201637 0.176917,-1.65292 -1.365599,-2.022111 -1.453069,-0.347785 -2.224209,-1.154538 -2.330209,-2.437829 -0.06465,-0.782583 0.04039,-1.127468 0.681492,-2.237901 0.416849,-0.722007 0.764909,-1.530052 0.773467,-1.795659 0.01412,-0.438736 -0.09857,-0.533457 -1.231756,-1.035321 -1.125013,-0.498244 -1.266433,-0.615792 -1.442333,-1.198841 -0.107262,-0.355543 -0.111146,-0.91067 -0.0086,-1.233624 0.232429,-0.732161 -0.05008,-1.201765 -1.081068,-1.797005 -0.655649,-0.378542 -0.810971,-0.578165 -0.83925,-1.078624 -0.01908,-0.337761 0.07861,-0.810379 0.217113,-1.05026 0.291386,-0.504694 0.181832,-0.913724 -0.394179,-1.471709 -0.225253,-0.218207 -0.483073,-0.709901 -0.572932,-1.092652 -0.205403,-0.874925 0.42359,-2.046543 1.433508,-2.67018 0.931295,-0.575091 1.120975,-1.27002 0.745249,-2.730374 -0.16133,-0.627037 -0.274228,-1.173141 -0.250888,-1.213566 0.126786,-0.219601 0.981702,-0.627372 1.396901,-0.666285 0.40669,-0.03811 0.584884,-0.245729 1.171781,-1.365263 l 0.692147,-1.320306 1.244557,0.349165 1.244556,0.349165 0.626472,-0.955715 c 0.344556,-0.525644 0.773034,-1.009959 0.952169,-1.07626 0.181982,-0.06735 0.708979,0.100736 1.194288,0.380933 0.723044,0.417451 0.977446,0.457918 1.518237,0.24149 0.357308,-0.142995 0.693893,-0.336624 0.74797,-0.430284 0.113983,-0.197428 -0.162333,-1.23118 -0.763226,-2.855371 -0.632515,-1.709664 -0.718152,-2.093364 -0.536897,-2.405596 0.219377,-0.377611 1.510854,-1.0739857 1.743272,-0.9397987 0.100881,0.05825 0.428894,0.04012 0.728908,-0.04027 0.453863,-0.121611 0.632025,-0.332484 1.060763,-1.2555104 0.622925,-1.3410824 1.067328,-1.5710534 3.487076,-1.8045244 1.803721,-0.17403 2.174155,-0.0373 2.890464,1.0669467 0.637458,0.9826837 1.218814,1.3146574 1.911489,1.0915334 0.491281,-0.1582577 0.558662,-0.2530977 0.637498,-0.8973184 0.04849,-0.3962017 0.268648,-1.0499957 0.489255,-1.4528837 0.390631,-0.713371 0.427276,-0.727132 1.402572,-0.526369 1.466565,0.301887 1.78819,0.194693 2.294819,-0.764845 0.503012,-0.9526799 0.817351,-1.0340841 1.807215,-0.468013 1.146533,0.65568 2.024744,-0.247734 1.653103,-1.7005395 -0.325809,-1.2736555 -0.07784,-1.4792721 1.387148,-1.1502086 l 0.960101,0.2156566 0.674149,-1.0402146 c 0.525188,-0.81036194 0.805801,-1.06578524 1.269948,-1.15594434 0.737659,-0.14328737 1.567105,0.47026657 1.839885,1.36099514 0.296854,0.9693526 0.804211,1.3374587 1.589342,1.1531383 0.374884,-0.088006 0.78038,-0.3311016 0.901107,-0.540207 0.317564,-0.5500353 1.109147,-0.8581906 1.741481,-0.6779382 0.395109,0.1126303 0.661855,0.3814407 0.955998,0.9630713 0.604487,1.1955614 0.831987,1.4014759 1.419376,1.284703 0.290326,-0.057714 1.07074,-0.5541487 1.734247,-1.1031788 1.380949,-1.1426977 2.736742,-1.66620507 3.369318,-1.3009877 0.239907,0.1385109 0.519099,0.6177454 0.634751,1.0895472 0.266572,1.0875057 0.966478,1.5137994 2.014187,1.2267998 1.2109,-0.3316987 2.153229,0.3078463 2.504417,1.6997084 0.355161,1.40765 0.982667,1.727979 2.047671,1.045302 1.056498,-0.677217 1.793558,-0.231796 2.234431,1.350308 0.176113,0.6319227 0.435529,1.2155444 0.576489,1.2969334 0.140978,0.08139 0.745224,-0.0036 1.342801,-0.188838 1.041244,-0.3227897 1.722008,-0.194539 2.004388,0.3775967 z m -32.190751,57.5310404 -14.30556,24.777963 -0.02576,0.708799 c -0.01416,0.389846 0.05946,0.79367 0.163616,0.897385 0.104161,0.103759 0.160041,0.239394 0.124185,0.301494 -0.03586,0.06214 0.0235,0.164118 0.131889,0.226698 0.10839,0.06259 0.25414,0.300109 0.323885,0.527856 0.06974,0.227735 0.231522,0.474527 0.35951,0.548417 0.127989,0.0739 0.313649,0.41117 0.412574,0.74949 0.09893,0.33834 0.257616,0.66004 0.352644,0.71489 0.09503,0.0549 0.139565,0.15729 0.09897,0.22759 -0.04058,0.0703 -0.0027,0.17063 0.08431,0.22295 0.087,0.0522 0.309927,0.56278 0.495475,1.134361 0.185548,0.571577 0.408513,1.082054 0.495475,1.134364 0.087,0.0523 0.116606,0.167037 0.06587,0.254927 -0.05072,0.088 0.02601,0.453077 0.170564,0.811547 0.144543,0.358467 0.294843,0.861957 0.334,1.118847 0.03915,0.25688 0.157326,0.98208 0.2626,1.61151 0.105275,0.62944 0.181743,1.34847 0.169929,1.59786 -0.01182,0.24936 0.01127,0.60789 0.0513,0.79673 0.09678,0.45657 0.03358,1.73957 -0.09683,1.96545 -0.05704,0.0989 -0.04621,0.21287 0.0241,0.25345 0.07031,0.0406 0.06141,0.18883 -0.01978,0.32945 -0.08118,0.1406 -0.09007,0.28884 -0.01977,0.32944 0.07031,0.0406 0.06141,0.18884 -0.01978,0.32943 -0.08118,0.14062 -0.09008,0.28886 -0.01977,0.32945 0.07031,0.0406 0.06141,0.18885 -0.01978,0.32945 -0.08118,0.1406 -0.09008,0.28885 -0.01977,0.32945 0.07031,0.0406 -0.003,0.30047 -0.163016,0.57754 -0.159961,0.27704 -0.253842,0.57249 -0.208626,0.65654 0.04522,0.084 0.0173,0.26523 -0.06203,0.40264 -0.07934,0.13741 -0.149081,0.38021 -0.154992,0.53957 -0.0059,0.15936 -0.18401,0.74546 -0.395766,1.3025 -0.211757,0.55703 -0.351358,1.07533 -0.310221,1.15178 0.104117,0.19351 -2.665296,4.96469 -2.885555,4.97129 -0.0954,0.003 -0.288155,0.20391 -0.428373,0.44677 -0.140216,0.24287 -0.364521,0.51149 -0.49845,0.59693 -0.133929,0.0855 -0.461684,0.37451 -0.728343,0.64237 -0.266656,0.26786 -0.59441,0.55692 -0.728341,0.64236 -0.133931,0.0855 -0.327436,0.30072 -0.430009,0.47838 -0.188871,0.32714 -0.315738,0.43228 -1.090859,0.90406 -0.237103,0.14432 -0.893897,0.5704 -1.459538,0.94685 -0.565646,0.37646 -1.079167,0.69352 -1.141162,0.70459 -0.271242,0.0485 -1.149102,0.51529 -1.228902,0.6535 -0.12964,0.22454 -5.881405,1.71771 -6.10948,1.58604 -0.107242,-0.062 -0.228193,-0.0551 -0.268782,0.0152 -0.04058,0.0702 -0.137396,0.0911 -0.215125,0.0462 -0.07773,-0.0449 -0.395247,-0.0365 -0.705593,0.0188 -0.310348,0.0551 -0.616119,0.0704 -0.679494,0.0338 -0.06568,-0.0379 1.155421,-2.31867 2.840364,-5.30513 1.625574,-2.88125 3.076995,-5.54612 3.225379,-5.92196 0.340534,-0.86251 0.390921,-2.12233 0.126886,-3.17256 -0.194495,-0.77364 -0.818851,-2.09725 -1.053067,-2.23248 -0.09711,-0.0559 -0.229945,-0.26696 -0.2952,-0.46868 -0.06526,-0.20172 -0.229702,-0.53971 -0.365438,-0.75107 -0.135737,-0.21139 -0.219196,-0.43213 -0.185466,-0.49056 0.03373,-0.0584 -0.02572,-0.15648 -0.13214,-0.21793 -0.246648,-0.14239 -0.555266,-0.66085 -0.656919,-1.10359 -0.04342,-0.18911 -0.172858,-0.39806 -0.287643,-0.46432 -0.114782,-0.0663 -0.184237,-0.16389 -0.154345,-0.21693 0.06345,-0.11287 -0.378023,-0.77215 -0.604834,-0.90311 -0.08559,-0.0494 -0.147931,-0.14738 -0.138563,-0.21774 0.03024,-0.22706 -0.701689,-1.63082 -0.914332,-1.75358 -0.113302,-0.0654 -0.263067,-0.30528 -0.332808,-0.53301 -0.175709,-0.57376 -1.358349,-1.25655 -2.015717,-1.16377 -0.255129,0.036 -0.540527,0.0229 -0.634216,-0.0291 -0.188672,-0.10477 -1.778442,-0.0151 -1.940158,0.10934 -0.05625,0.0433 -0.181991,0.0327 -0.279447,-0.0236 -0.205319,-0.11854 -1.132089,-0.14305 -2.202806,-0.0582 -0.411101,0.0326 -0.837753,0.007 -0.948118,-0.0567 -0.110365,-0.0637 -0.233868,-0.0583 -0.274457,0.012 -0.04058,0.0702 -0.149233,0.0842 -0.241431,0.031 -0.09219,-0.0532 -0.33731,-0.0604 -0.544697,-0.0162 -0.20739,0.0442 -0.676014,0.0671 -1.041393,0.0507 -2.014744,-0.0904 -2.962551,0.16594 -4.406831,1.19233 -0.986327,0.70093 -1.217522,1.03873 -4.055046,5.92468 -1.569583,2.70266 -3.001301,5.0791 -3.181611,5.28098 l -0.327842,0.36704 -0.312486,-0.63954 c -0.171868,-0.35175 -0.304418,-0.69779 -0.294551,-0.76898 0.0098,-0.0712 -0.0503,-0.16886 -0.133709,-0.21702 -0.190663,-0.11011 -0.756392,-1.76607 -1.082054,-3.16738 -0.136344,-0.58669 -0.349412,-1.45545 -0.473478,-1.93057 -0.124071,-0.47513 -0.188321,-0.9284 -0.142782,-1.00728 0.07604,-0.13171 0.03742,-1.1311 -0.05344,-1.38247 -0.0214,-0.0593 -0.0035,-0.6625 0.03962,-1.34058 0.04319,-0.67808 0.0838,-1.45993 0.09023,-1.73741 0.02132,-0.91992 0.04927,-1.07069 0.269058,-1.45138 0.119922,-0.20772 0.181044,-0.44642 0.135828,-0.53045 -0.04522,-0.084 -0.0032,-0.289817 0.09358,-0.457267 0.09668,-0.16746 0.138789,-0.373227 0.09357,-0.457267 -0.04522,-0.084 0.0135,-0.31857 0.130473,-0.521187 0.116976,-0.20261 0.175688,-0.437137 0.130471,-0.521167 -0.04522,-0.084 0.0467,-0.376097 0.204271,-0.648997 0.157565,-0.272911 0.249487,-0.564961 0.20427,-0.649001 -0.05046,-0.0939 0.498778,-1.1591 1.421944,-2.758086 0.923165,-1.598966 1.571147,-2.607273 1.677589,-2.610476 0.0954,-0.0034 0.302349,-0.228482 0.459915,-0.501402 0.157566,-0.27291 0.364528,-0.498537 0.459915,-0.501404 0.0954,-0.0034 0.269142,-0.170969 0.386117,-0.373578 0.116977,-0.20261 0.290729,-0.370723 0.386118,-0.373579 0.0954,-0.0034 0.252536,-0.142217 0.349217,-0.309672 0.09668,-0.167454 0.25383,-0.306804 0.349218,-0.309672 0.0954,-0.0034 0.269141,-0.170968 0.386116,-0.373577 0.116978,-0.202611 0.29073,-0.370723 0.386119,-0.373579 0.0954,-0.0034 0.254496,-0.14561 0.353572,-0.317213 0.09907,-0.171605 0.228061,-0.284347 0.286633,-0.250529 0.118759,0.06862 1.775538,-0.960098 1.904585,-1.182523 0.0452,-0.07787 0.370703,-0.2435 0.723341,-0.367989 0.35264,-0.124478 0.682808,-0.298146 0.733712,-0.385929 0.0509,-0.0878 0.150067,-0.126397 0.22037,-0.08579 0.07031,0.04061 0.169405,0.0023 0.220226,-0.08591 0.05082,-0.0878 0.342197,-0.245553 0.647498,-0.350496 0.305303,-0.104985 0.82091,-0.305765 1.145796,-0.446276 0.938515,-0.405888 4.727558,-1.360865 4.931738,-1.242981 0.101897,0.0588 0.218484,0.04942 0.259073,-0.02087 0.04058,-0.07028 0.149235,-0.08423 0.24143,-0.03102 0.0922,0.05321 0.357532,0.05299 0.589633,-4.35e-4 0.232098,-0.05344 0.473008,-0.06772 0.535354,-0.0318 0.06235,0.03603 0.283885,0.01005 0.492308,-0.05667 0.208427,-0.06717 0.444851,-0.08401 0.525393,-0.03748 0.219649,0.126821 1.010843,0.17609 1.075366,0.06695 0.03095,-0.05243 0.148379,-0.04217 0.260863,0.02276 0.333252,0.192401 1.552107,-0.208701 1.767414,-0.581633 0.105533,-0.182784 0.249396,-0.299127 0.319699,-0.258538 0.08477,0.04894 14.403458,-24.652328 14.403458,-24.652328 0,0 14.60856,8.349303 14.54185,8.46485 z" /></g></g></svg>
