<?xml version="1.0" encoding="UTF-8" standalone="no"?>
<!-- Created with Inkscape (http://www.inkscape.org/) -->

<svg
   version="1.1"
   id="svg1"
   width="50"
   height="60"
   viewBox="0 0 50 60"
   sodipodi:docname="TreeGuy1234.svg"
   inkscape:version="1.4.3 (0d15f75, 2025-12-25)"
   xmlns:inkscape="http://www.inkscape.org/namespaces/inkscape"
   xmlns:sodipodi="http://sodipodi.sourceforge.net/DTD/sodipodi-0.dtd"
   xmlns="http://www.w3.org/2000/svg"
   xmlns:svg="http://www.w3.org/2000/svg">
  <defs
     id="defs1" />
  <sodipodi:namedview
     id="namedview1"
     pagecolor="#ffffff"
     bordercolor="#000000"
     borderopacity="0.25"
     inkscape:showpageshadow="2"
     inkscape:pageopacity="0.0"
     inkscape:pagecheckerboard="0"
     inkscape:deskcolor="#d1d1d1"
     inkscape:zoom="1.702"
     inkscape:cx="101.05758"
     inkscape:cy="133.07873"
     inkscape:window-width="1920"
     inkscape:window-height="1111"
     inkscape:window-x="-9"
     inkscape:window-y="-9"
     inkscape:window-maximized="1"
     inkscape:current-layer="g1" />
  <g
     inkscape:groupmode="layer"
     inkscape:label="Image"
     id="g1">
    <path
       style="fill:#000000;stroke-width:0.1046"
       d="m 15.371168,54.538475 c 0.146987,-0.253844 0.706501,-1.256779 1.243366,-2.228746 1.354062,-2.451467 1.357997,-2.556042 0.176055,-4.678456 -0.244192,-0.438496 -0.496624,-0.862126 -0.56096,-0.941401 -0.06434,-0.07927 -0.199878,-0.322198 -0.301205,-0.539833 -0.101326,-0.217634 -0.31469,-0.535357 -0.474141,-0.706051 l -0.289913,-0.310351 -2.180785,0.0011 c -2.072395,9.16e-4 -2.206779,0.01328 -2.703785,0.247656 -0.6821644,0.321693 -0.8080074,0.47364 -1.8298684,2.209423 -0.474154,0.80542 -1.027221,1.719722 -1.229039,2.031783 l -0.366942,0.567381 -0.202007,-0.410481 c -0.912335,-1.853886 -0.989531,-4.479079 -0.193295,-6.573342 0.436453,-1.147956 2.021836,-3.098634 2.980897,-3.667738 1.6723554,-0.992369 2.9579954,-1.401783 4.6581564,-1.483394 0.690476,-0.03314 1.292018,-0.114127 1.412101,-0.190105 0.28361,-0.179443 5.681865,-9.456748 5.982968,-10.282179 0.366331,-1.004239 0.413239,-1.669661 0.158325,-2.245935 -0.116501,-0.263372 -0.337727,-0.561355 -0.491613,-0.662185 -0.267154,-0.175046 -0.303787,-0.174697 -0.811113,0.0077 l -0.531323,0.191061 -0.374463,-0.408806 c -0.301994,-0.329712 -0.453199,-0.412189 -0.781299,-0.426192 -0.629118,-0.02685 -0.76434,-0.226181 -0.596826,-0.879783 0.161912,-0.631752 0.118634,-0.697106 -0.647933,-0.978412 -0.50869,-0.186674 -0.808422,-0.552377 -0.808422,-0.986356 0,-0.112753 0.140005,-0.501043 0.311121,-0.86287 0.28941,-0.611955 0.299228,-0.671008 0.140688,-0.846192 -0.09374,-0.103598 -0.235883,-0.188345 -0.315875,-0.188345 -0.07999,0 -0.265728,-0.120285 -0.412743,-0.2673 -0.221535,-0.221535 -0.255731,-0.328956 -0.199733,-0.627446 0.06135,-0.327054 0.0264,-0.398156 -0.380352,-0.77374 -0.435719,-0.40233 -0.444376,-0.422973 -0.317879,-0.758104 0.116195,-0.307835 0.105474,-0.377738 -0.100714,-0.656621 -0.375242,-0.507541 -0.309304,-0.937956 0.220993,-1.442533 l 0.451748,-0.429838 -0.06674,-0.651434 -0.06674,-0.651434 0.374427,-0.123572 c 0.286026,-0.0944 0.427248,-0.232296 0.598158,-0.584078 0.23863,-0.491173 0.355721,-0.534932 0.912245,-0.340927 0.290763,0.10136 0.357724,0.0933 0.439543,-0.0529 0.05308,-0.09486 0.201175,-0.294143 0.329084,-0.442847 0.231308,-0.26891 0.234603,-0.269395 0.61103,-0.08989 0.485021,0.23129 0.923543,0.141392 0.923543,-0.189327 0,-0.128151 -0.123842,-0.604867 -0.275205,-1.05937 l -0.275207,-0.8263692 0.249056,-0.191513 c 0.136982,-0.105331 0.366731,-0.193279 0.510557,-0.19544 0.347823,-0.0052 0.442352,-0.07879 0.766693,-0.596658 0.311098,-0.496725 0.703168,-0.65771 1.604168,-0.658683 0.50694,-5.44e-4 0.561134,0.02565 0.876228,0.423484 0.450146,0.568355 0.808341,0.548353 1.03914,-0.05802 0.261489,-0.687014 0.28847,-0.707748 0.817699,-0.628385 0.455035,0.06823 0.491462,0.05424 0.798284,-0.306768 0.309853,-0.364573 0.333893,-0.373504 0.664102,-0.24674 0.510738,0.196068 0.70339,0.02919 0.70339,-0.609278 v -0.50997 l 0.478694,0.03297 c 0.446789,0.03077 0.495587,0.0081 0.7322,-0.340107 0.431597,-0.635169 0.886393,-0.587402 1.222681,0.128417 0.230723,0.491115 0.542932,0.550696 0.976033,0.186267 0.175859,-0.147976 0.408439,-0.269048 0.516844,-0.269048 0.18858,0 0.62365,0.373403 0.62365,0.535252 0,0.104309 0.307461,0.406149 0.41371,0.406149 0.04673,0 0.395881,-0.21289 0.775891,-0.473088 0.380009,-0.260199 0.832689,-0.501441 1.005952,-0.536094 0.293466,-0.0587 0.329331,-0.03066 0.524067,0.409572 0.238641,0.539479 0.361699,0.612629 0.887178,0.527356 0.443661,-0.072 0.838584,0.223073 0.944599,0.705762 0.102579,0.467044 0.299994,0.571967 0.778818,0.41394 0.536712,-0.177131 0.699109,-0.0985 0.85226,0.412665 0.175493,0.585751 0.300972,0.668589 0.806544,0.532454 0.769557,-0.20722 0.999791,0.11027 0.651286,0.898119 -0.277324,0.626935 -0.206181,0.8407132 0.327629,0.9844522 0.652965,0.175826 0.923066,0.508152 0.923066,1.135712 0,0.646883 0.133068,0.738703 0.961664,0.663569 0.50271,-0.04558 0.64951,-0.0204 0.83003,0.142353 0.19065,0.171901 0.21122,0.275589 0.15738,0.793738 -0.0551,0.53101 -0.0337,0.629617 0.19741,0.9042 0.14262,0.169507 0.25932,0.380355 0.25932,0.468552 0,0.226907 -0.47994,0.576387 -0.89971,0.655135 -0.316,0.05928 -0.35549,0.103743 -0.35549,0.400306 0,0.292002 0.059,0.362267 0.47279,0.563313 0.59362,0.288401 0.7748,0.633206 0.57838,1.100713 -0.0768,0.182917 -0.1605,0.523167 -0.1859,0.756113 l -0.0462,0.423535 0.50571,0.151766 0.50572,0.151764 0.0119,0.6276 c 0.007,0.34518 0.0466,0.753425 0.0891,0.907211 0.0684,0.247795 0.0286,0.310284 -0.34985,0.549195 -0.41805,0.263902 -0.42571,0.279406 -0.36319,0.735466 0.0623,0.454344 0.0546,0.470307 -0.31122,0.644734 -0.50148,0.239145 -0.54151,0.402367 -0.22931,0.935107 0.37045,0.63212 0.34186,0.83087 -0.1656,1.151218 -0.47204,0.297982 -0.47473,0.322864 -0.1318,1.215601 l 0.18827,0.490128 -0.31722,0.398972 c -0.46815,0.588777 -0.46963,0.594801 -0.2474,1.009419 0.11275,0.210372 0.205,0.572769 0.205,0.805326 0,0.345855 -0.0731,0.501199 -0.40156,0.853327 -0.36056,0.386541 -0.46236,0.43554 -0.997039,0.479879 -0.663771,0.05505 -0.902603,0.262267 -0.902603,0.783152 0,0.354731 -0.412622,0.803908 -0.753597,0.82035 -0.509078,0.02455 -0.785035,-0.04262 -1.409725,-0.343116 -0.872265,-0.419592 -1.079279,-0.323882 -1.079279,0.498995 0,0.318172 -0.04872,0.669542 -0.108275,0.78082 -0.159916,0.298807 -0.59343,0.250769 -1.006006,-0.111477 -0.434499,-0.381495 -0.553022,-0.388266 -0.91553,-0.0523 -0.493325,0.457196 -0.922226,0.286087 -1.205552,-0.480953 l -0.170071,-0.460447 -0.729232,-0.0094 c -0.928272,-0.0119 -1.466963,-0.248333 -2.329093,-1.022229 -1.050453,-0.942943 -1.092414,-0.962352 -1.633652,-0.755651 -0.524987,0.200495 -0.843573,0.60843 -1.261932,1.615851 -0.151984,0.36598 -0.386654,0.83668 -0.521487,1.046 -0.134835,0.20932 -1.402919,2.390442 -2.817964,4.846938 -1.845776,3.204236 -2.572811,4.557919 -2.572811,4.790378 0,0.181135 0.184162,0.659575 0.417616,1.08494 1.149705,2.094822 1.433129,4.29223 0.839439,6.508241 -0.389772,1.454864 -0.923155,2.412812 -1.935128,3.475454 -1.36406,1.432358 -3.161126,2.318628 -5.068671,2.499747 l -0.673644,0.06397 z"
       id="path1" />
  </g>
</svg>
