<?xml version="1.0" encoding="UTF-8" standalone="no"?>
<svg
   version="1.1"
   width="50"
   height="50"
   viewBox="0 0 1000.0 1000.0"
   id="svg1"
   sodipodi:docname="AugmentationDot.svg"
   xml:space="preserve"
   inkscape:version="1.4.3 (0d15f75, 2025-12-25)"
   xmlns:inkscape="http://www.inkscape.org/namespaces/inkscape"
   xmlns:sodipodi="http://sodipodi.sourceforge.net/DTD/sodipodi-0.dtd"
   xmlns="http://www.w3.org/2000/svg"
   xmlns:svg="http://www.w3.org/2000/svg"><defs
     id="defs1" /><sodipodi:namedview
     id="namedview1"
     pagecolor="#ffffff"
     bordercolor="#000000"
     borderopacity="0.25"
     inkscape:showpageshadow="2"
     inkscape:pageopacity="0.0"
     inkscape:pagecheckerboard="0"
     inkscape:deskcolor="#d1d1d1"
     inkscape:zoom="8.51"
     inkscape:cx="19.153937"
     inkscape:cy="20.27027"
     inkscape:window-width="1920"
     inkscape:window-height="1111"
     inkscape:window-x="-9"
     inkscape:window-y="-9"
     inkscape:window-maximized="1"
     inkscape:current-layer="svg1" /><path
     id="path1"
     style="stroke-width:0.117779"
     d="M 513.99746,83.595771 V 604.10106 c -13.10902,-10.79566 -28.37477,-19.26893 -45.72494,-25.43788 -17.35018,-6.16896 -36.78478,-9.26247 -58.37612,-9.26247 -48.58049,0 -89.66969,16.78991 -123.21336,50.33359 -33.54366,33.54367 -50.2884,74.58767 -50.2884,123.16817 0,48.58049 16.74472,89.62451 50.2884,123.16818 33.54367,33.54368 74.63287,50.33358 123.21336,50.33358 48.5805,0 89.62451,-16.7899 123.16819,-50.33358 33.54367,-33.54367 50.33358,-74.58769 50.33358,-123.16818 V 239.74736 83.595771 Z M 710.63279,717.50977 c -2.36476,-0.0104 -4.74728,0.17638 -7.00332,0.497 l -0.40665,0.0452 c -9.63197,1.33082 -19.45472,5.10822 -26.83855,11.61196 -0.24093,0.21748 -0.51478,0.42951 -0.76811,0.63255 -0.77229,0.61423 -1.47573,1.24082 -2.16878,1.94286 -0.11601,0.11768 -0.19989,0.24414 -0.31627,0.36147 -1.26204,1.27168 -2.54166,2.52858 -3.65981,3.9309 -0.13915,0.17533 -0.26466,0.36915 -0.40664,0.54219 -0.96772,1.17278 -1.85486,2.4033 -2.71096,3.6598 l -0.22592,0.2711 c -4.24646,6.22907 -7.05734,13.6528 -8.17807,21.10034 -0.022,0.15058 -0.0238,0.30571 -0.0452,0.45183 -0.73666,4.85465 -0.88489,10.17642 -0.18072,15.04586 l 0.0452,0.40664 c 1.36333,9.58678 5.13573,19.3956 11.61196,26.74819 0.21749,0.24094 0.4295,0.46961 0.63257,0.72292 0.61423,0.7723 1.28599,1.47572 1.98803,2.16877 0.11769,0.11602 0.24413,0.24509 0.36146,0.36146 1.27169,1.26206 2.52857,2.54167 3.9309,3.65981 0.17532,0.13916 0.36916,0.26466 0.5422,0.40665 1.17276,0.96773 2.35813,1.85486 3.61462,2.71096 l 0.31628,0.18073 c 6.50113,4.43193 14.11418,7.16639 21.86845,8.31363 0.16156,0.0236 0.33546,0.0215 0.49701,0.0452 4.53498,0.69211 9.64487,0.74726 14.18738,0.0903 0.13345,-0.0199 0.27712,-0.0709 0.40665,-0.0903 9.58677,-1.36332 19.39557,-5.13574 26.74819,-11.61197 0.24091,-0.21749 0.4696,-0.4295 0.72293,-0.63255 0.77229,-0.61424 1.52089,-1.24083 2.21395,-1.94286 0.11599,-0.11769 0.19991,-0.24414 0.31628,-0.36146 1.26204,-1.27169 2.54164,-2.52858 3.6598,-3.93091 0.13915,-0.17534 0.26466,-0.36914 0.40664,-0.54219 0.96774,-1.17277 1.85486,-2.40331 2.71097,-3.6598 l 0.22591,-0.2711 c 4.45376,-6.53315 7.14627,-14.20797 8.26844,-22.004 0.0236,-0.16577 0.0666,-0.33125 0.0903,-0.49701 0.67237,-4.50403 0.68645,-9.44939 0.0452,-13.96147 l -0.0452,-0.40665 c -1.33084,-9.63196 -5.10823,-19.49991 -11.61196,-26.88372 -0.21748,-0.24094 -0.4295,-0.4696 -0.63256,-0.72293 -0.61423,-0.7723 -1.28599,-1.47572 -1.98804,-2.16877 -0.11768,-0.11602 -0.24414,-0.24511 -0.36146,-0.36146 -1.27167,-1.26205 -2.52857,-2.49647 -3.9309,-3.61462 -0.17532,-0.13916 -0.36916,-0.30985 -0.54219,-0.45184 -1.17278,-0.96773 -2.35812,-1.85486 -3.61462,-2.71096 l -0.31629,-0.18073 c -6.53317,-4.45377 -14.20798,-7.19145 -22.00399,-8.31363 -0.16577,-0.0236 -0.33126,-0.0215 -0.49701,-0.0452 -2.25202,-0.33618 -4.59338,-0.53137 -6.95815,-0.5422 z" /></svg>
