<?xml version="1.0" encoding="UTF-8" standalone="no"?>
<svg
   height="48px"
   viewBox="0 -960 960 960"
   width="48px"
   fill="#000000"
   version="1.1"
   id="svg1"
   sodipodi:docname="DeleteMeasures.svg"
   inkscape:version="1.4.3 (0d15f75, 2025-12-25)"
   xmlns:inkscape="http://www.inkscape.org/namespaces/inkscape"
   xmlns:sodipodi="http://sodipodi.sourceforge.net/DTD/sodipodi-0.dtd"
   xmlns="http://www.w3.org/2000/svg"
   xmlns:svg="http://www.w3.org/2000/svg">
  <defs
     id="defs1" />
  <sodipodi:namedview
     id="namedview1"
     pagecolor="#ffffff"
     bordercolor="#000000"
     borderopacity="0.25"
     inkscape:showpageshadow="2"
     inkscape:pageopacity="0.0"
     inkscape:pagecheckerboard="0"
     inkscape:deskcolor="#d1d1d1"
     inkscape:zoom="11.313709"
     inkscape:cx="26.560698"
     inkscape:cy="22.318058"
     inkscape:window-width="1920"
     inkscape:window-height="1111"
     inkscape:window-x="-9"
     inkscape:window-y="-9"
     inkscape:window-maximized="1"
     inkscape:current-layer="svg1" />
  <path
     d="m 560.79548,-59.690471 q -14.96652,0 -25.62146,-10.660995 -10.661,-10.65495 -10.661,-25.621464 V -440.65631 H 499.72 v -36.28246 H 613.40505 V -495.08 h 159.6428 v 18.14123 h 113.68504 v 36.28246 h -24.79301 v 344.68338 q 0,14.512984 -10.88474,25.397722 -10.88474,10.884737 -25.39772,10.884737 z M 825.65742,-440.65631 H 560.79548 v 344.68338 h 264.86194 z m -200.76293,292.67852 h 36.28244 v -241.27837 h -36.28244 z m 100.38145,0 H 761.5584 V -389.25616 H 725.27594 Z M 560.79548,-440.65631 v 344.68338 z"
     id="path1"
     style="stroke-width:0.604708" />
  <path
     id="rect1"
     style="fill:#000000;stroke-width:23.503"
     d="m 71.796875,-865.85938 v 56.09376 H 886.79688 v -56.09376 H 71.3 Z m 0,187.73438 v 56.09375 H 886.79688 V -678.125 Z m 0,187.73438 v 56.09374 H 445.46875 v -56.09374 z m 0,187.73437 v 56.13281 H 445.46875 v -56.13281 z m 0,187.77344 v 56.093748 H 445.46875 v -56.093748 z"
     sodipodi:nodetypes="cccccccccccccccccccccccccc" />
  <rect
     style="fill:#000000;stroke-width:29.052"
     id="rect6"
     width="43.336311"
     height="807.0307"
     x="47.705635"
     y="-865.79999" />
</svg>
