<?xml version="1.0" encoding="UTF-8" standalone="no"?>
<svg
   version="1.1"
   width="50"
   height="50"
   viewBox="0 0 1000.0 1000.0"
   id="svg1"
   sodipodi:docname="DoubleDuration.svg"
   xml:space="preserve"
   inkscape:version="1.4.3 (0d15f75, 2025-12-25)"
   xmlns:inkscape="http://www.inkscape.org/namespaces/inkscape"
   xmlns:sodipodi="http://sodipodi.sourceforge.net/DTD/sodipodi-0.dtd"
   xmlns="http://www.w3.org/2000/svg"
   xmlns:svg="http://www.w3.org/2000/svg"><defs
     id="defs1" /><sodipodi:namedview
     id="namedview1"
     pagecolor="#ffffff"
     bordercolor="#000000"
     borderopacity="0.25"
     inkscape:showpageshadow="2"
     inkscape:pageopacity="0.0"
     inkscape:pagecheckerboard="0"
     inkscape:deskcolor="#d1d1d1"
     inkscape:zoom="6.0174787"
     inkscape:cx="1.6618256"
     inkscape:cy="33.984333"
     inkscape:window-width="1920"
     inkscape:window-height="1111"
     inkscape:window-x="-9"
     inkscape:window-y="-9"
     inkscape:window-maximized="1"
     inkscape:current-layer="svg1" /><path
     d="m 375.42757,50.818381 c 9.24,0 18.48,0 28,0 0.0512,70.404699 0.0991,140.809409 0.12703,211.214129 4.1e-4,1.04227 8.3e-4,2.08453 0.001,3.15839 0.009,22.65214 0.0173,45.30429 0.0249,67.95643 0.004,11.10886 0.008,22.21771 0.0116,33.32657 4e-4,1.10545 7.9e-4,2.21091 10e-4,3.34986 0.0128,35.82102 0.0353,71.64203 0.0629,107.46305 0.0283,36.81549 0.0468,73.63097 0.0529,110.44647 8.7e-4,5.20177 0.002,10.40355 0.003,15.60532 2e-4,1.02377 4.1e-4,2.04754 6.1e-4,3.10233 0.004,16.46958 0.0175,32.93913 0.0353,49.4087 0.0177,16.56368 0.0244,33.12735 0.02,49.69104 -0.002,9.83675 0.004,19.67341 0.0219,29.51013 0.0113,6.5786 0.0116,13.15713 0.003,19.73578 -0.005,3.7435 -0.004,7.4868 0.009,11.2303 0.0606,17.7618 -0.09,34.9049 -6.06215,51.864 -0.25274,0.7355 -0.50547,1.471 -0.76587,2.2288 -7.26848,20.3941 -19.52126,38.4111 -34.21069,54.1853 -2.01012,2.1714 -3.93085,4.3856 -5.83594,6.6484 -32.0969,36.7141 -85.39424,62.6269 -133.5,67.875 -4.88064,0.2527 -9.74181,0.3304 -14.62817,0.3157 -2.17199,0 -4.34259,0.02 -6.51441,0.046 -12.81475,0.059 -25.39717,-1.5754 -37.48242,-6.0489 -0.69746,-0.2534 -1.39493,-0.5069 -2.11353,-0.768 -20.71218,-7.8482 -37.93477,-22.269 -47.26096,-42.5445 -11.02535,-27.0177 -7.62522,-58.3335 3.13184,-84.9531 9.02155,-21.2702 22.02015,-39.4053 37.86816,-56.0469 0.32678,-0.3532 0.32678,-0.3532 1.98047,-2.1406 35.5105,-37.25198 90.34502,-56.412 140.86328,-58.0469 19.38667,-0.37885 38.50392,1.86873 56.46875,9.4375 0.60924,0.25096 1.21849,0.50193 1.84619,0.7605 6.44748,2.88132 10.82423,6.61344 16.84131,10.9895 0.33,-220.77 0.66,-441.54 1,-668.999999 z"
     fill="#000000"
     id="path1" /><path
     id="path3"
     style="fill:#000000;stroke-width:0.0727044"
     d="m 798.49507,326.31806 c -23.9527,-0.0368 -38.48646,2.37804 -54.55383,9.06818 -32.49518,13.53028 -54.08116,41.62736 -61.8981,80.57401 -2.22535,11.08748 -3.61829,26.92087 -2.97913,33.8416 0.13349,1.44431 7.50389,1.75978 33.97789,1.45411 l 33.80751,-0.38909 0.87189,-11.6327 c 1.69761,-22.59899 8.18592,-36.11277 21.33986,-44.45473 9.36411,-5.93856 16.28445,-7.62892 31.58946,-7.71632 32.09619,-0.18339 48.00239,13.12809 49.78263,41.66302 1.39838,22.41457 -4.27119,37.10471 -21.31433,55.22403 -5.93475,6.30956 -18.69437,17.3364 -28.35468,24.50368 -42.68219,31.66722 -52.10335,39.36782 -70.03474,57.23197 -39.14401,38.99704 -52.97104,68.12909 -56.73493,119.53615 -0.53695,7.3342 -0.5802,14.37218 -0.0937,15.63992 0.79923,2.08276 12.76535,2.27005 124.16256,1.93406 l 123.27647,-0.37204 0.39194,-30.89923 0.39192,-30.89942 h -78.54911 -78.5491 v -3.16381 c 0,-1.73976 2.37743,-7.97441 5.28242,-13.85358 8.10013,-16.39342 26.0118,-34.30764 59.33925,-59.34775 45.66953,-34.31311 61.9482,-49.94672 75.22345,-72.23578 14.26899,-23.95753 19.11849,-54.29562 13.45313,-84.16099 -9.93196,-52.35711 -52.6731,-81.44198 -119.82869,-81.54529 z m -305.15951,144.90605 -13.48148,13.37926 -13.48158,13.37931 25.36413,25.57433 c 13.95122,14.06603 25.63362,26.35155 25.96054,27.30106 0.32706,0.94946 -11.45106,13.32899 -26.17357,27.51121 l -26.76711,25.78735 13.06409,13.15208 c 7.18526,7.23388 13.53202,12.98712 14.10632,12.78287 0.57431,-0.20404 12.43761,-11.65936 26.36104,-25.455 13.92347,-13.79566 25.99623,-25.08299 26.82964,-25.08299 0.83348,0 12.86656,11.75546 26.73866,26.12527 13.87225,14.3698 25.56106,26.148 25.97767,26.17353 0.4165,0.0253 6.61297,-5.83271 13.76836,-13.02145 l 13.01011,-13.07255 -21.13536,-21.46196 c -23.5667,-23.93264 -30.37539,-31.22217 -30.38539,-32.5324 -0.006,-0.48884 11.79549,-12.19768 26.21906,-26.02018 14.42349,-13.82254 26.03799,-25.59032 25.81001,-26.15088 -1.00135,-2.46217 -23.75178,-26.18776 -25.11138,-26.18776 -0.83061,0 -12.29957,10.83873 -25.48626,24.08617 -13.18674,13.24741 -25.22748,24.77737 -26.75581,25.62261 -2.43332,1.3457 -5.98796,-1.78427 -28.60456,-25.17676 z" /></svg>
