<?xml version="1.0" encoding="UTF-8" standalone="no"?>
<svg
   height="48px"
   viewBox="0 -960 960 960"
   width="48px"
   fill="#000000"
   version="1.1"
   id="svg1"
   sodipodi:docname="InsertMode.svg"
   xml:space="preserve"
   inkscape:version="1.4.3 (0d15f75, 2025-12-25)"
   xmlns:inkscape="http://www.inkscape.org/namespaces/inkscape"
   xmlns:sodipodi="http://sodipodi.sourceforge.net/DTD/sodipodi-0.dtd"
   xmlns="http://www.w3.org/2000/svg"
   xmlns:svg="http://www.w3.org/2000/svg"><defs
     id="defs1" /><sodipodi:namedview
     id="namedview1"
     pagecolor="#ffffff"
     bordercolor="#000000"
     borderopacity="0.25"
     inkscape:showpageshadow="2"
     inkscape:pageopacity="0.0"
     inkscape:pagecheckerboard="0"
     inkscape:deskcolor="#d1d1d1"
     inkscape:zoom="8.8645833"
     inkscape:cx="21.546416"
     inkscape:cy="25.325499"
     inkscape:window-width="1920"
     inkscape:window-height="1111"
     inkscape:window-x="-9"
     inkscape:window-y="-9"
     inkscape:window-maximized="1"
     inkscape:current-layer="svg1" /><path
     id="path1-8"
     style="fill:#000000;stroke-width:0.698626"
     d="m 82.631545,-831.19862 v 576.48694 h 72.066005 v -453.98294 l 207.94897,207.94898 55.93732,-44.93865 -213.44832,-213.44831 h 453.98295 v -72.06602 z m 347.648665,367.06054 c -46.57505,0 -86.16683,16.27594 -118.76936,48.87847 -32.60253,32.60252 -48.91952,72.19432 -48.91952,118.76936 0,46.57504 16.31699,86.16683 48.91952,118.76936 32.60253,32.60252 72.19431,48.91951 118.76936,48.91951 h 279.4404 c 46.57505,0 86.16684,-16.31699 118.76936,-48.91951 32.60253,-32.60253 48.87848,-72.19432 48.87848,-118.76936 0,-46.57504 -16.27595,-86.16684 -48.87848,-118.76936 -32.60252,-32.60253 -72.19431,-48.87847 -118.76936,-48.87847 z m 0,41.9017 h 279.4404 c 34.93129,0 64.60461,12.23773 89.05651,36.68963 24.4519,24.45189 36.68963,54.12522 36.68963,89.0565 0,34.93128 -12.23773,64.64564 -36.68963,89.09753 -24.4519,24.4519 -54.12522,36.68964 -89.05651,36.68964 h -279.4404 c -34.93129,0 -64.64565,-12.23774 -89.09755,-36.68964 -24.45189,-24.45189 -36.64859,-54.16625 -36.64859,-89.09753 0,-34.93128 12.1967,-64.60461 36.64859,-89.0565 24.4519,-24.4519 54.16626,-36.68963 89.09755,-36.68963 z m 280.13809,55.19861 c -19.56152,0 -36.20588,6.86237 -49.94552,20.60201 -13.73964,13.73964 -20.602,30.38399 -20.602,49.94551 0,19.56152 6.86236,36.24691 20.602,49.98655 13.73964,13.73963 30.384,20.60201 49.94552,20.60201 19.56151,0 36.20587,-6.86238 49.9455,-20.60201 13.73964,-13.73964 20.60202,-30.42503 20.60202,-49.98655 0,-19.56152 -6.86238,-36.20587 -20.60202,-49.94551 -13.73963,-13.73964 -30.38399,-20.60201 -49.9455,-20.60201 z" /></svg>
