<?xml version="1.0" encoding="UTF-8" standalone="no"?>
<svg
   version="1.1"
   width="50"
   height="50"
   viewBox="0 0 1000.0 1000.0"
   id="svg1"
   sodipodi:docname="NoteInputMode.svg"
   xml:space="preserve"
   inkscape:version="1.4.3 (0d15f75, 2025-12-25)"
   xmlns:inkscape="http://www.inkscape.org/namespaces/inkscape"
   xmlns:sodipodi="http://sodipodi.sourceforge.net/DTD/sodipodi-0.dtd"
   xmlns="http://www.w3.org/2000/svg"
   xmlns:svg="http://www.w3.org/2000/svg"><defs
     id="defs1" /><sodipodi:namedview
     id="namedview1"
     pagecolor="#ffffff"
     bordercolor="#000000"
     borderopacity="0.25"
     inkscape:showpageshadow="2"
     inkscape:pageopacity="0.0"
     inkscape:pagecheckerboard="0"
     inkscape:deskcolor="#d1d1d1"
     inkscape:zoom="12.034957"
     inkscape:cx="18.030808"
     inkscape:cy="28.043308"
     inkscape:window-width="1920"
     inkscape:window-height="1111"
     inkscape:window-x="-9"
     inkscape:window-y="-9"
     inkscape:window-maximized="1"
     inkscape:current-layer="g2" /><g
     id="g2"
     transform="translate(22.576635)"><path
       d="m 739.2011,50.818553 c 9.2401,0 18.48,0 28,0 0.051,70.404707 0.099,140.809417 0.1271,211.214137 4e-4,1.04227 8e-4,2.08453 10e-4,3.15839 0.01,22.65214 0.017,45.30429 0.025,67.95643 0,11.10886 0.01,22.21771 0.012,33.32657 4e-4,1.10545 8e-4,2.21091 10e-4,3.34986 0.013,35.82102 0.035,71.64203 0.063,107.46305 0.028,36.81549 0.047,73.63097 0.053,110.44647 8e-4,5.20177 0,10.40355 0,15.60532 2e-4,1.02377 4e-4,2.04754 6e-4,3.10233 0,16.46958 0.017,32.93913 0.035,49.4087 0.018,16.56368 0.024,33.12735 0.02,49.69104 0,9.83675 0,19.67341 0.022,29.51013 0.011,6.5786 0.012,13.15713 0,19.73573 -0.01,3.7435 0,7.48683 0.01,11.23031 0.061,17.76179 -0.09,34.90491 -6.0622,51.86404 -0.2527,0.73549 -0.5054,1.47098 -0.7658,2.22876 -7.2685,20.39412 -19.5213,38.41112 -34.2107,54.1853 -2.0101,2.17147 -3.9309,4.38559 -5.836,6.64844 -32.09685,36.71409 -85.39419,62.62692 -133.49996,67.875 -4.88063,0.25265 -9.74181,0.33044 -14.62817,0.31567 -2.17198,-0.003 -4.34259,0.0204 -6.5144,0.0457 -12.81475,0.0587 -25.39717,-1.57536 -37.48243,-6.04883 -0.69746,-0.25346 -1.39492,-0.50692 -2.11352,-0.76807 -20.7127,-7.84818 -37.93528,-22.26896 -47.26148,-42.54443 -11.02534,-27.01772 -7.62521,-58.33354 3.13184,-84.95313 9.02227,-21.27021 22.02087,-39.4053 37.86887,-56.04691 0.32678,-0.3532 0.32678,-0.3532 1.98047,-2.14063 35.5105,-37.25195 90.34502,-56.41197 140.86328,-58.04687 19.38668,-0.37885 38.50392,1.86873 56.46875,9.4375 0.60925,0.25096 1.21845,0.50193 1.84625,0.7605 6.4474,2.88132 10.8242,6.61344 16.8413,10.9895 0.33,-220.77 0.66,-441.54 0.9999,-669.000007 z"
       fill="#000000"
       id="path1" /><path
       d="M 485.94042,595.8793 H 459.53404 L 176.2657,313.2111 l 26.40637,-26.40638 283.26835,282.6682 z m 36.00868,36.00868 V 555.06945 L 176.86584,210.58633 q -4.80115,-4.80115 -11.40275,-7.50181 -6.60159,-2.70065 -13.80333,-2.70065 -6.60159,0 -13.20318,2.70065 -6.6016,2.70066 -12.0029,7.50181 l -26.40637,26.40638 q -5.4013,5.4013 -7.80188,12.00289 -2.40058,6.60159 -2.40058,13.20319 0,6.60159 2.70065,13.50326 2.70065,6.90166 7.50181,11.70282 L 445.13057,631.88798 Z M 126.45368,261.59864 151.05962,236.99271 Z m 63.0152,38.40927 13.20319,-13.20319 -26.40637,26.40638 z"
       id="path1-8"
       style="fill:#000000;stroke-width:0.600145"
       transform="translate(-22.576635)" /></g></svg>
