<?xml version="1.0" encoding="UTF-8" standalone="no"?>
<svg
   height="48px"
   viewBox="0 -960 960 960"
   width="48px"
   fill="#000000"
   version="1.1"
   id="svg1"
   sodipodi:docname="OctaveUp.svg"
   inkscape:version="1.4.3 (0d15f75, 2025-12-25)"
   xml:space="preserve"
   xmlns:inkscape="http://www.inkscape.org/namespaces/inkscape"
   xmlns:sodipodi="http://sodipodi.sourceforge.net/DTD/sodipodi-0.dtd"
   xmlns="http://www.w3.org/2000/svg"
   xmlns:svg="http://www.w3.org/2000/svg"><defs
     id="defs1" /><sodipodi:namedview
     id="namedview1"
     pagecolor="#ffffff"
     bordercolor="#000000"
     borderopacity="0.25"
     inkscape:showpageshadow="2"
     inkscape:pageopacity="0.0"
     inkscape:pagecheckerboard="0"
     inkscape:deskcolor="#d1d1d1"
     inkscape:zoom="8.0000004"
     inkscape:cx="10.999999"
     inkscape:cy="27.312499"
     inkscape:window-width="1920"
     inkscape:window-height="1111"
     inkscape:window-x="-9"
     inkscape:window-y="-9"
     inkscape:window-maximized="1"
     inkscape:current-layer="g5"
     showguides="false" /><g
     id="g5"
     transform="translate(16.884765,-0.01954075)"><path
       style="fill:#000000;stroke-width:12.4254"
       d="m 701.54297,-648.39844 -143.55469,154.5703 21.53786,23.16406 106.63264,-114.80468 v 433.86719 h 30.76838 v -433.86719 l 106.63263,114.80469 21.53787,-23.16406 z"
       id="path5" /><path
       id="path4"
       style="fill:#000000;stroke-width:13.9302"
       d="m 335.78125,-889.53125 a 64.950981,64.950974 0 0 0 -65,64.92187 64.950981,64.950974 0 0 0 16.60156,43.35938 H 170.78125 v 0.0391 h -9.64844 v 710.74219 h 17.30469 301.79688 v 0.03906 h 17.30468 v -710.74223 h -1.71875 V -781.25 H 384.10156 a 64.950981,64.950974 0 0 0 16.64063,-43.35938 64.950981,64.950974 0 0 0 -64.96094,-64.92187 z M 178.4375,-731.875 h 301.79688 v 115.9375 H 178.4375 Z m 0,165.3125 H 480.23438 V -450.625 H 178.4375 Z m 0,165.39062 h 301.79688 v 115.9375 h -84.25782 a 64.950981,64.950974 0 0 0 -60.19531,-40.70312 64.950981,64.950974 0 0 0 -60.27344,40.70312 H 178.4375 Z m 0,165.35157 h 97.42188 a 64.950981,64.950974 0 0 0 59.92187,39.76562 64.950981,64.950974 0 0 0 59.84375,-39.76562 h 84.60938 v 115.9375 H 178.4375 Z" /></g></svg>
