<?xml version="1.0" encoding="UTF-8" standalone="no"?>
<svg
   height="48px"
   viewBox="0 -960 960 960"
   width="48px"
   fill="#000000"
   version="1.1"
   id="svg1"
   sodipodi:docname="PasteSwap.svg"
   xml:space="preserve"
   inkscape:version="1.4.3 (0d15f75, 2025-12-25)"
   xmlns:inkscape="http://www.inkscape.org/namespaces/inkscape"
   xmlns:sodipodi="http://sodipodi.sourceforge.net/DTD/sodipodi-0.dtd"
   xmlns="http://www.w3.org/2000/svg"
   xmlns:svg="http://www.w3.org/2000/svg"><defs
     id="defs1" /><sodipodi:namedview
     id="namedview1"
     pagecolor="#ffffff"
     bordercolor="#000000"
     borderopacity="0.25"
     inkscape:showpageshadow="2"
     inkscape:pageopacity="0.0"
     inkscape:pagecheckerboard="0"
     inkscape:deskcolor="#d1d1d1"
     inkscape:zoom="8.8645833"
     inkscape:cx="17.259694"
     inkscape:cy="29.273796"
     inkscape:window-width="1920"
     inkscape:window-height="1111"
     inkscape:window-x="-9"
     inkscape:window-y="-9"
     inkscape:window-maximized="1"
     inkscape:current-layer="svg1" /><path
     id="path1"
     d="M 480 -920 C 456 -920 434.81771 -912.5 416.48438 -897.5 C 398.15104 -882.5 386.65885 -863.33333 381.99219 -840 L 180 -840 C 162.66667 -840 148.32552 -834.34115 136.99219 -823.00781 C 125.65885 -811.67448 120 -797.33333 120 -780 L 120 -180 C 120 -162.66667 125.65885 -148.32552 136.99219 -136.99219 C 148.32552 -125.65885 162.66667 -120 180 -120 L 419.64844 -120 L 419.64844 -180 L 180 -180 L 180 -780 L 240 -780 L 240 -690 L 720 -690 L 720 -780 L 780 -780 L 780 -468.16406 L 840 -468.16406 L 840 -780 C 840 -797.33333 834.34115 -811.67448 823.00781 -823.00781 C 811.67448 -834.34115 797.33333 -840 780 -840 L 578.00781 -840 C 573.34115 -863.33333 561.84896 -882.5 543.51562 -897.5 C 525.18229 -912.5 504 -920 480 -920 z M 480 -860 C 491.33333 -860 500.84896 -856.18229 508.51562 -848.51562 C 516.18229 -840.84896 520 -831.33333 520 -820 C 520 -808.66667 516.18229 -799.15104 508.51562 -791.48438 C 500.84896 -783.81771 491.33333 -780 480 -780 C 468.66667 -780 459.15104 -783.81771 451.48438 -791.48438 C 443.81771 -799.15104 440 -808.66667 440 -820 C 440 -831.33333 443.81771 -840.84896 451.48438 -848.51562 C 459.15104 -856.18229 468.66667 -860 480 -860 z " /><g
     style="fill:#000000"
     id="g1"
     transform="matrix(0.57837838,0,0,0.57837838,413.89424,52.702704)"><path
       d="m 273,-160 -193,-193 193,-193 42,42 -121,121 h 316 v 60 H 194 l 121,121 z m 414,-254 -42,-42 121,-121 H 450 v -60 h 316 l -121,-121 42,-42 193,193 z"
       id="path1-8" /></g></svg>
