<?xml version="1.0" encoding="UTF-8" standalone="no"?>
<svg
   height="48px"
   viewBox="0 -960 960 960"
   width="48px"
   fill="#000000"
   version="1.1"
   id="svg1"
   sodipodi:docname="SidePanel.svg"
   xml:space="preserve"
   inkscape:version="1.4.3 (0d15f75, 2025-12-25)"
   xmlns:inkscape="http://www.inkscape.org/namespaces/inkscape"
   xmlns:sodipodi="http://sodipodi.sourceforge.net/DTD/sodipodi-0.dtd"
   xmlns="http://www.w3.org/2000/svg"
   xmlns:svg="http://www.w3.org/2000/svg"><defs
     id="defs1" /><sodipodi:namedview
     id="namedview1"
     pagecolor="#ffffff"
     bordercolor="#000000"
     borderopacity="0.25"
     inkscape:showpageshadow="2"
     inkscape:pageopacity="0.0"
     inkscape:pagecheckerboard="0"
     inkscape:deskcolor="#d1d1d1"
     inkscape:zoom="6.268207"
     inkscape:cx="4.068149"
     inkscape:cy="11.247235"
     inkscape:window-width="1920"
     inkscape:window-height="1111"
     inkscape:window-x="-9"
     inkscape:window-y="-9"
     inkscape:window-maximized="1"
     inkscape:current-layer="svg1" /><path
     id="path1"
     d="M 120 -840 L 120 -450 L 450 -450 L 450 -840 L 120 -840 z M 510 -840 L 510 -570 L 840 -570 L 840 -840 L 510 -840 z M 180 -780 L 390 -780 L 390 -510 L 180 -510 L 180 -780 z M 570 -780 L 780 -780 L 780 -630 L 570 -630 L 570 -780 z M 510 -510 L 510 -398.20312 L 570 -398.20312 L 570 -450 L 780 -450 L 780 -398.20312 L 840 -398.20312 L 840 -510 L 510 -510 z M 120 -390 L 120 -120 L 450 -120 L 450 -390 L 120 -390 z M 180 -330 L 390 -330 L 390 -180 L 180 -180 L 180 -330 z " /><path
     d="M 600.5,-379.5 Q 650,-429 650,-500 650,-571 600.5,-620.5 551,-670 480,-670 409,-670 359.5,-620.5 310,-571 310,-500 q 0,71 49.5,120.5 49.5,49.5 120.5,49.5 71,0 120.5,-49.5 z m -200,-41 Q 368,-453 368,-500 q 0,-47 32.5,-79.5 32.5,-32.5 79.5,-32.5 47,0 79.5,32.5 32.5,32.5 32.5,79.5 0,47 -32.5,79.5 -32.5,32.5 -79.5,32.5 -47,0 -79.5,-32.5 z M 216,-283 Q 98,-366 40,-500 q 58,-134 176,-217 118,-83 264,-83 146,0 264,83 118,83 176,217 -58,134 -176,217 -118,83 -264,83 -146,0 -264,-83 z m 264,-217 z m 222.5,174.5 Q 804,-391 857,-500 804,-609 702.5,-674.5 601,-740 480,-740 359,-740 257.5,-674.5 156,-609 102,-500 156,-391 257.5,-325.5 359,-260 480,-260 q 121,0 222.5,-65.5 z"
     id="path1-8"
     style="fill:#000000"
     transform="matrix(0.5299648,0,0,0.5299648,437.3208,32.0329)" /></svg>
