<?xml version="1.0" encoding="UTF-8" standalone="no"?>
<svg
   height="48px"
   viewBox="0 -960 960 960"
   width="48px"
   fill="#000000"
   version="1.1"
   id="svg1"
   sodipodi:docname="Slur.svg"
   xml:space="preserve"
   inkscape:version="1.4.3 (0d15f75, 2025-12-25)"
   xmlns:inkscape="http://www.inkscape.org/namespaces/inkscape"
   xmlns:sodipodi="http://sodipodi.sourceforge.net/DTD/sodipodi-0.dtd"
   xmlns="http://www.w3.org/2000/svg"
   xmlns:svg="http://www.w3.org/2000/svg"><defs
     id="defs1" /><sodipodi:namedview
     id="namedview1"
     pagecolor="#ffffff"
     bordercolor="#000000"
     borderopacity="0.25"
     inkscape:showpageshadow="2"
     inkscape:pageopacity="0.0"
     inkscape:pagecheckerboard="0"
     inkscape:deskcolor="#d1d1d1"
     inkscape:zoom="4"
     inkscape:cx="-8.7499999"
     inkscape:cy="-17.375"
     inkscape:window-width="1920"
     inkscape:window-height="1111"
     inkscape:window-x="-9"
     inkscape:window-y="-9"
     inkscape:window-maximized="1"
     inkscape:current-layer="svg1" /><path
     id="path2"
     style="fill:#000000;stroke-width:0.133146"
     d="m 769.85938,-259.18239 c -0.46393,0.0849 -0.97043,0.29833 -1.48667,0.64709 -1.65176,1.116 -10.66331,7.18281 -20.02659,13.48377 -97.00156,65.27652 -341.82584,109.31222 -444.9065,80.02029 -18.84183,-5.3542 -22.44458,-2.17877 -6.19562,5.46234 44.02211,20.7015 120.54875,26.81201 206.39439,16.47872 25.79794,-3.10533 93.50849,-18.7887 123.01736,-28.49202 37.86476,-12.451 75.85678,-30.27439 101.62068,-47.67498 22.84943,-15.43224 44.38298,-34.5371 43.59726,-38.6819 -0.18805,-0.99201 -0.99387,-1.43005 -2.01431,-1.24331 z" /><g
     id="g2"
     transform="translate(0,25.936587)"><path
       id="path1"
       style="stroke-width:0.773684"
       d="m 324.80757,-809.57582 v 361.93464 c -8.43403,-7.50735 -18.20977,-13.38953 -29.37246,-17.67933 -11.16268,-4.28998 -23.6811,-6.4246 -37.57243,-6.4246 -31.25552,0 -57.6854,11.65704 -79.26659,34.98352 -21.58117,23.32649 -32.36609,51.89378 -32.36609,85.67696 0,33.78312 10.78492,62.30351 32.36609,85.62999 21.58119,23.32646 48.01107,35.03047 79.26659,35.03047 31.2555,0 57.6854,-11.70401 79.26658,-35.03047 21.58118,-23.32648 32.3661,-51.84687 32.3661,-85.62999 v -349.92954 -108.56165 z m 444.27464,-80 v 361.93464 c -8.4341,-7.50735 -18.20982,-13.38953 -29.37245,-17.67933 -11.16273,-4.28998 -23.68112,-6.4246 -37.57243,-6.4246 -31.25552,0 -57.68541,11.65704 -79.26659,34.98352 -21.58118,23.32649 -32.3661,51.89378 -32.3661,85.67696 0,33.78312 10.78492,62.30351 32.3661,85.62999 21.58118,23.32646 48.01107,35.03047 79.26659,35.03047 31.25544,0 57.68537,-11.70401 79.26658,-35.03047 21.58118,-23.32648 32.36609,-51.84687 32.36609,-85.62999 v -349.92954 -108.56165 z"
       sodipodi:nodetypes="cccssssssscccccssssssssccc" /></g></svg>
