<?xml version="1.0" encoding="UTF-8" standalone="no"?>
<svg
   height="48px"
   viewBox="0 -960 960 960"
   width="48px"
   fill="#000000"
   version="1.1"
   id="svg1"
   sodipodi:docname="Tie.svg"
   xml:space="preserve"
   inkscape:version="1.4.3 (0d15f75, 2025-12-25)"
   xmlns:inkscape="http://www.inkscape.org/namespaces/inkscape"
   xmlns:sodipodi="http://sodipodi.sourceforge.net/DTD/sodipodi-0.dtd"
   xmlns="http://www.w3.org/2000/svg"
   xmlns:svg="http://www.w3.org/2000/svg"><defs
     id="defs1" /><sodipodi:namedview
     id="namedview1"
     pagecolor="#ffffff"
     bordercolor="#000000"
     borderopacity="0.25"
     inkscape:showpageshadow="2"
     inkscape:pageopacity="0.0"
     inkscape:pagecheckerboard="0"
     inkscape:deskcolor="#d1d1d1"
     inkscape:zoom="5.6568543"
     inkscape:cx="8.3085047"
     inkscape:cy="-2.9168155"
     inkscape:window-width="1920"
     inkscape:window-height="1111"
     inkscape:window-x="-9"
     inkscape:window-y="-9"
     inkscape:window-maximized="1"
     inkscape:current-layer="svg1" /><g
     id="g2"
     transform="translate(0,25.936587)"><path
       id="path1"
       style="stroke-width:0.773684"
       d="m 324.80757,-849.57582 v 361.93464 c -8.43403,-7.50735 -18.20977,-13.38953 -29.37246,-17.67933 -11.16268,-4.28998 -23.6811,-6.4246 -37.57243,-6.4246 -31.25552,0 -57.6854,11.65704 -79.26659,34.98352 -21.58117,23.32649 -32.36609,51.89378 -32.36609,85.67696 0,33.78312 10.78492,62.30351 32.36609,85.62999 21.58119,23.32646 48.01107,35.03047 79.26659,35.03047 31.2555,0 57.6854,-11.70401 79.26658,-35.03047 21.58118,-23.32648 32.3661,-51.84687 32.3661,-85.62999 v -349.92954 -108.56165 z m 444.27464,0 v 361.93464 c -8.4341,-7.50735 -18.20982,-13.38953 -29.37245,-17.67933 -11.16273,-4.28998 -23.68112,-6.4246 -37.57243,-6.4246 -31.25552,0 -57.68541,11.65704 -79.26659,34.98352 -21.58118,23.32649 -32.3661,51.89378 -32.3661,85.67696 0,33.78312 10.78492,62.30351 32.3661,85.62999 21.58118,23.32646 48.01107,35.03047 79.26659,35.03047 31.25544,0 57.68537,-11.70401 79.26658,-35.03047 21.58118,-23.32648 32.36609,-51.84687 32.36609,-85.62999 v -349.92954 -108.56165 z" /><path
       id="path2"
       style="fill:#000000;stroke-width:0.133146"
       d="m 721.97078,-227.30782 c -0.47162,-0.003 -1.00901,0.11236 -1.58118,0.35888 -1.83071,0.78883 -11.81453,5.07107 -22.18752,9.51786 -107.46205,46.06772 -356.20414,43.73419 -452.02548,-4.24404 -17.51492,-8.76981 -21.64606,-6.32097 -7.10458,4.21283 39.39616,28.53842 113.44566,48.79515 199.71379,54.63147 25.92489,1.7539 95.37171,-1.04391 126.17148,-5.0814 39.52122,-5.18079 80.16809,-15.61627 108.72205,-27.91384 25.32388,-10.90649 50.03894,-25.66643 50.03894,-29.88504 0,-1.00968 -0.71014,-1.59014 -1.7475,-1.59672 z" /></g></svg>
