<?xml version="1.0" encoding="UTF-8" standalone="no"?>
<svg
   height="48px"
   viewBox="0 -960 960 960"
   width="48px"
   fill="#000000"
   version="1.1"
   id="svg1"
   sodipodi:docname="dashboard_2_50dp_000000_FILL0_wght400_GRAD0_opsz48.svg"
   xml:space="preserve"
   inkscape:version="1.4.3 (0d15f75, 2025-12-25)"
   xmlns:inkscape="http://www.inkscape.org/namespaces/inkscape"
   xmlns:sodipodi="http://sodipodi.sourceforge.net/DTD/sodipodi-0.dtd"
   xmlns="http://www.w3.org/2000/svg"
   xmlns:svg="http://www.w3.org/2000/svg"><defs
     id="defs1" /><sodipodi:namedview
     id="namedview1"
     pagecolor="#ffffff"
     bordercolor="#000000"
     borderopacity="0.25"
     inkscape:showpageshadow="2"
     inkscape:pageopacity="0.0"
     inkscape:pagecheckerboard="0"
     inkscape:deskcolor="#d1d1d1"
     inkscape:zoom="12.536414"
     inkscape:cx="21.218189"
     inkscape:cy="20.141326"
     inkscape:window-width="1920"
     inkscape:window-height="1111"
     inkscape:window-x="-9"
     inkscape:window-y="-9"
     inkscape:window-maximized="1"
     inkscape:current-layer="svg1" /><path
     d="m 450,-510 v -290 h 430 v 290 z M 80,-160 v -290 h 430 v 290 z m 0,-350 v -290 h 310 v 290 z m 430,-60 H 820 V -740 H 510 Z M 140,-220 H 450 V -390 H 140 Z m 0,-350 H 330 V -740 H 140 Z"
     id="path1"
     sodipodi:nodetypes="cccccccccccccccccccccccccccccc" /><g
     style="fill:#000000"
     id="g1"
     transform="matrix(0.40808794,0,0,0.40808794,511.73648,-119.10056)"><path
       d="M 109.91,-240 Q 81,-240 60.5,-260.59 40,-281.18 40,-310.09 40,-339 60.49,-359.5 q 20.5,-20.5 49.28,-20.5 5.23,0 10.23,0.5 5,0.5 13,2.5 l 200,-200 q -2,-8 -2.5,-13 -0.5,-5 -0.5,-10.23 0,-28.78 20.59,-49.28 20.59,-20.49 49.5,-20.49 28.91,0 49.41,20.63 20.5,20.64 20.5,49.61 0,1.76 -3,22.76 l 110,110 q 8,-2 13,-2.5 5,-0.5 10,-0.5 5,0 10,0.5 5,0.5 13,2.5 l 160,-160 q -2,-8 -2.5,-13 -0.5,-5 -0.5,-10.23 0,-28.78 20.59,-49.28 20.59,-20.49 49.5,-20.49 28.91,0 49.41,20.59 20.5,20.59 20.5,49.5 0,28.91 -20.49,49.41 -20.5,20.5 -49.28,20.5 -5.23,0 -10.23,-0.5 -5,-0.5 -13,-2.5 l -160,160 q 2,8 2.5,13 0.5,5 0.5,10.23 0,28.78 -20.59,49.28 -20.59,20.49 -49.5,20.49 -28.91,0 -49.41,-20.49 -20.5,-20.5 -20.5,-49.28 0,-5.23 0.5,-10.23 0.5,-5 2.5,-13 L 423,-533 q -8,2 -13,2.5 -5,0.5 -10.25,0.5 -1.75,0 -22.75,-3 l -200,200 q 2,8 2.5,13 0.5,5 0.5,10.23 0,28.78 -20.59,49.28 -20.59,20.49 -49.5,20.49 z"
       id="path1-8" /></g></svg>
