<?xml version="1.0" encoding="UTF-8" standalone="no"?>
<svg
   version="1.1"
   width="50"
   height="50"
   viewBox="0 0 1000.0 1000.0"
   id="svg1"
   sodipodi:docname="AugmentationDot.svg"
   xml:space="preserve"
   inkscape:version="1.4.3 (0d15f75, 2025-12-25)"
   xmlns:inkscape="http://www.inkscape.org/namespaces/inkscape"
   xmlns:sodipodi="http://sodipodi.sourceforge.net/DTD/sodipodi-0.dtd"
   xmlns="http://www.w3.org/2000/svg"
   xmlns:svg="http://www.w3.org/2000/svg"><defs
     id="defs1" /><sodipodi:namedview
     id="namedview1"
     pagecolor="#ffffff"
     bordercolor="#000000"
     borderopacity="0.25"
     inkscape:showpageshadow="2"
     inkscape:pageopacity="0.0"
     inkscape:pagecheckerboard="0"
     inkscape:deskcolor="#d1d1d1"
     inkscape:zoom="8.51"
     inkscape:cx="16.098707"
     inkscape:cy="20.27027"
     inkscape:window-width="1920"
     inkscape:window-height="1111"
     inkscape:window-x="-9"
     inkscape:window-y="-9"
     inkscape:window-maximized="1"
     inkscape:current-layer="svg1" /><g
     id="g1"
     transform="translate(52.557432,-12.268063)"><path
       d="m 482.46745,63.08647 c 9.24,0 18.48,0 28,0 0.0512,70.4047 0.0991,140.80941 0.12703,211.21413 4.1e-4,1.04227 8.3e-4,2.08453 0.001,3.15839 0.009,22.65214 0.0173,45.30429 0.0249,67.95643 0.004,11.10886 0.008,22.21771 0.0116,33.32657 4e-4,1.10545 7.9e-4,2.21091 10e-4,3.34986 0.0128,35.82102 0.0353,71.64203 0.0629,107.46305 0.0283,36.81549 0.0468,73.63097 0.0529,110.44652 8.7e-4,5.2017 0.002,10.4035 0.003,15.6053 2e-4,1.0237 4.1e-4,2.0475 6.1e-4,3.1023 0.004,16.4696 0.0175,32.9391 0.0353,49.4087 0.0177,16.5637 0.0244,33.1274 0.02,49.691 -0.002,9.8368 0.004,19.6735 0.0219,29.5102 0.0113,6.5786 0.0116,13.1571 0.003,19.7357 -0.005,3.7435 -0.004,7.4868 0.009,11.2303 0.0606,17.7618 -0.09,34.9049 -6.06215,51.8641 -0.25274,0.7354 -0.50547,1.4709 -0.76587,2.2287 -7.26848,20.3941 -19.52126,38.4111 -34.21069,54.1853 -2.01012,2.1715 -3.93085,4.3856 -5.83594,6.6485 -32.0969,36.714 -85.39424,62.6269 -133.5,67.875 -4.88064,0.2526 -9.74182,0.3304 -14.62818,0.3156 -2.17199,0 -4.34259,0.02 -6.51441,0.046 -12.81475,0.059 -25.39717,-1.5753 -37.48242,-6.0488 -0.69746,-0.2535 -1.39493,-0.5069 -2.11353,-0.7681 -20.71218,-7.8482 -37.93477,-22.269 -47.26096,-42.5444 -11.02535,-27.0178 -7.62522,-58.3336 3.13184,-84.9532 9.02155,-21.2701 22.02015,-39.4052 37.86816,-56.0468 0.32678,-0.3532 0.32678,-0.3532 1.98047,-2.1407 35.5105,-37.2519 90.34503,-56.4119 140.86329,-58.0468 19.38667,-0.3789 38.50392,1.8687 56.46875,9.4375 0.60924,0.2509 1.21849,0.5019 1.84619,0.7605 6.44748,2.8813 10.82423,6.6134 16.84131,10.9895 0.33,-220.77005 0.66,-441.54005 1,-669.00005 z"
       fill="#000000"
       id="path1-5" /><circle
       style="fill:#000000;stroke-width:76.4151"
       id="path1"
       cx="636.89777"
       cy="815.51117"
       r="42.303173" /></g></svg>
