<?xml version="1.0" encoding="UTF-8" standalone="no"?>
<svg
   height="48px"
   viewBox="0 -960 960 960"
   width="48px"
   fill="#000000"
   version="1.1"
   id="svg1"
   sodipodi:docname="CloseScore.svg"
   xml:space="preserve"
   inkscape:version="1.4.3 (0d15f75, 2025-12-25)"
   xmlns:inkscape="http://www.inkscape.org/namespaces/inkscape"
   xmlns:sodipodi="http://sodipodi.sourceforge.net/DTD/sodipodi-0.dtd"
   xmlns="http://www.w3.org/2000/svg"
   xmlns:svg="http://www.w3.org/2000/svg"><defs
     id="defs1" /><sodipodi:namedview
     id="namedview1"
     pagecolor="#ffffff"
     bordercolor="#000000"
     borderopacity="0.25"
     inkscape:showpageshadow="2"
     inkscape:pageopacity="0.0"
     inkscape:pagecheckerboard="0"
     inkscape:deskcolor="#d1d1d1"
     inkscape:zoom="12.536414"
     inkscape:cx="22.414703"
     inkscape:cy="23.890404"
     inkscape:window-width="1920"
     inkscape:window-height="1111"
     inkscape:window-x="-9"
     inkscape:window-y="-9"
     inkscape:window-maximized="1"
     inkscape:current-layer="svg1" /><path
     d="m 220,-80 c -16,0 -30,-6 -42,-18 -12,-12 -18,-26 -18,-42 v -680 c 0,-16 6,-30 18,-42 12,-12 26,-18 42,-18 h 361 l 219,219 v 521 c 0,16 -6,30 -18,42 -12,12 -26,18 -42,18 z M 551,-634 V -820 H 220 v 680 H 740 V -634 Z M 220,-820 v 186 -186 680 z"
     id="path1"
     sodipodi:nodetypes="ssssssccsssscccccccccccc" /><g
     style="fill:#000000"
     id="g1"
     transform="matrix(0.73118602,0,0,0.73118602,129.03071,-49.03071)"><path
       d="m 249,-207 -42,-42 231,-231 -231,-231 42,-42 231,231 231,-231 42,42 -231,231 231,231 -42,42 -231,-231 z"
       id="path1-8" /></g></svg>
