<?xml version="1.0" encoding="UTF-8" standalone="no"?>
<svg
   version="1.1"
   width="50"
   height="50"
   viewBox="0 0 1000.0 1000.0"
   id="svg1"
   sodipodi:docname="InsertMode.svg"
   xml:space="preserve"
   inkscape:version="1.4.3 (0d15f75, 2025-12-25)"
   xmlns:inkscape="http://www.inkscape.org/namespaces/inkscape"
   xmlns:sodipodi="http://sodipodi.sourceforge.net/DTD/sodipodi-0.dtd"
   xmlns="http://www.w3.org/2000/svg"
   xmlns:svg="http://www.w3.org/2000/svg"><defs
     id="defs1" /><sodipodi:namedview
     id="namedview1"
     pagecolor="#ffffff"
     bordercolor="#000000"
     borderopacity="0.25"
     inkscape:showpageshadow="2"
     inkscape:pageopacity="0.0"
     inkscape:pagecheckerboard="0"
     inkscape:deskcolor="#d1d1d1"
     inkscape:zoom="8.51"
     inkscape:cx="18.213866"
     inkscape:cy="30.376028"
     inkscape:window-width="1920"
     inkscape:window-height="1111"
     inkscape:window-x="-9"
     inkscape:window-y="-9"
     inkscape:window-maximized="1"
     inkscape:current-layer="svg1" /><path
     d="m 269.91121,157.04382 c 7.05486,0 14.10974,0 21.37839,0 0.0391,53.75494 0.0757,107.50991 0.097,161.26486 3.1e-4,0.7958 6.3e-4,1.59158 7.6e-4,2.41149 0.006,17.29522 0.0136,34.59044 0.019,51.88565 0.003,8.48177 0.005,16.96354 0.01,25.4453 3e-4,0.84401 6e-4,1.68806 7.6e-4,2.55767 0.01,27.34983 0.0269,54.69966 0.0479,82.0495 0.0216,28.10914 0.0357,56.21825 0.0403,84.32739 6.7e-4,3.97163 0.001,7.94326 0.003,11.91488 1.6e-4,0.78166 3.1e-4,1.56331 4.7e-4,2.36867 0.003,12.57474 0.0136,25.14947 0.0269,37.72421 0.0136,12.6466 0.0186,25.29318 0.0153,37.93979 -0.001,7.5105 0.003,15.02092 0.0167,22.53139 0.009,5.02286 0.01,10.04565 0.003,15.0685 -0.004,2.85821 -0.003,5.71629 0.006,8.5745 0.0463,13.56137 -0.0688,26.65037 -4.62853,39.5989 -0.19297,0.56156 -0.38593,1.12311 -0.58475,1.70168 -5.54959,15.57119 -14.90475,29.32743 -26.12034,41.37122 -1.53475,1.65796 -3.00126,3.34847 -4.4558,5.07618 -24.50643,28.03171 -65.19969,47.81652 -101.92909,51.82349 -3.72644,0.19291 -7.438,0.2523 -11.1688,0.24102 -1.65835,-0.003 -3.31563,0.0157 -4.97385,0.0349 -9.78423,0.0448 -19.39108,-1.20282 -28.61833,-4.61837 -0.53253,-0.19352 -1.06505,-0.38704 -1.61372,-0.58642 -15.814023,-5.99224 -28.963707,-17.00269 -36.084381,-32.48329 -8.418005,-20.62841 -5.82196,-44.53846 2.391203,-64.86289 6.888077,-16.24005 16.812687,-30.08645 28.912858,-42.79254 0.2495,-0.26968 0.2495,-0.26968 1.51211,-1.6344 27.11275,-28.44238 68.97966,-43.07131 107.55104,-44.31959 14.80199,-0.28924 29.39827,1.4268 43.11467,7.20567 0.46516,0.19162 0.93033,0.38323 1.40958,0.58065 4.92275,2.19992 8.26446,5.04946 12.85858,8.39064 0.25195,-168.56093 0.50393,-337.12183 0.7635,-510.79065 z"
     fill="#000000"
     id="path1"
     style="stroke-width:0.763515" /><path
     style="fill:#000000;stroke-width:0.0495653"
     d="m 341.90302,913.9808 c -18.35314,-6.62919 -27.99782,-25.30574 -22.54686,-43.66125 2.99244,-10.07639 9.95197,-17.92657 20.11931,-22.69392 l 5.57107,-2.61224 67.16097,-0.28702 67.16097,-0.28689 V 500.03682 155.63415 l -59.23052,-0.2848 -59.23053,-0.28466 -5.62578,-2.63723 c -7.87657,-3.69244 -14.09834,-9.78381 -17.91769,-17.54221 -2.87968,-5.84935 -3.21947,-7.44096 -3.20031,-14.99107 0.0181,-7.0334 0.46255,-9.39541 2.65681,-14.11527 3.68202,-7.919893 10.42049,-14.784586 17.90686,-18.242482 l 6.18011,-2.85441 161.08724,-0.264112 c 158.91102,-0.26064 161.17597,-0.237312 167.66449,1.72867 10.96482,3.32223 19.79799,12.591421 23.22145,24.367744 4.75082,16.34231 -3.88961,34.26347 -20.20777,41.91314 l -5.62578,2.63723 -68.15229,0.28036 -68.1523,0.28036 v 344.44612 344.44613 h 57.28746 c 48.54274,0 58.18783,0.23454 63.18596,1.53635 32.08128,8.35619 36.3947,51.43047 6.61808,66.08994 l -6.60572,3.25211 -162.09953,0.21815 c -156.08689,0.21009 -162.28963,0.14955 -167.2257,-1.63341 z"
     id="path2" /><path
     d="m 773.88918,842.95617 c -7.05486,0 -14.10974,0 -21.37839,0 -0.0391,-53.75494 -0.0757,-107.50991 -0.097,-161.26486 -3.1e-4,-0.7958 -6.3e-4,-1.59158 -7.6e-4,-2.41149 -0.006,-17.29522 -0.0136,-34.59044 -0.019,-51.88565 -0.003,-8.48177 -0.005,-16.96354 -0.01,-25.4453 -3e-4,-0.84401 -6e-4,-1.68806 -7.6e-4,-2.55767 -0.01,-27.34983 -0.0269,-54.69966 -0.0479,-82.0495 -0.0216,-28.10914 -0.0357,-56.21825 -0.0403,-84.32739 -6.7e-4,-3.97163 -10e-4,-7.94326 -0.003,-11.91488 -1.6e-4,-0.78166 -3.1e-4,-1.56331 -4.7e-4,-2.36867 -0.003,-12.57474 -0.0136,-25.14947 -0.0269,-37.72421 -0.0136,-12.6466 -0.0186,-25.29318 -0.0153,-37.93979 10e-4,-7.5105 -0.003,-15.02092 -0.0167,-22.53139 -0.009,-5.02286 -0.01,-10.04565 -0.003,-15.0685 0.004,-2.85821 0.003,-5.71629 -0.006,-8.5745 -0.0463,-13.56137 0.0688,-26.65037 4.62853,-39.5989 0.19297,-0.56156 0.38593,-1.12311 0.58475,-1.70168 5.54959,-15.57119 14.90475,-29.32743 26.12034,-41.37122 1.53475,-1.65796 3.00126,-3.34847 4.4558,-5.07618 24.50643,-28.03171 65.19969,-47.81652 101.92909,-51.82349 3.72644,-0.19291 7.438,-0.2523 11.1688,-0.24102 1.65835,0.003 3.31563,-0.0157 4.97385,-0.0349 9.78423,-0.0448 19.39108,1.20282 28.61833,4.61837 0.53253,0.19352 1.06505,0.38704 1.61372,0.58642 15.81403,5.99224 28.96371,17.00269 36.08438,32.48329 8.41801,20.62841 5.82196,44.53846 -2.3912,64.86289 -6.88808,16.24005 -16.81269,30.08645 -28.91286,42.79254 -0.2495,0.26968 -0.2495,0.26968 -1.51211,1.6344 -27.11275,28.44238 -68.97966,43.07131 -107.55104,44.31959 -14.80199,0.28924 -29.39827,-1.4268 -43.11467,-7.20567 -0.46516,-0.19162 -0.93033,-0.38323 -1.40958,-0.58065 -4.92275,-2.19992 -8.26446,-5.04946 -12.85858,-8.39064 -0.25195,168.56093 -0.50393,337.12183 -0.7635,510.79065 z"
     fill="#000000"
     id="path3"
     style="stroke-width:0.763515" /></svg>
