<?xml version="1.0" encoding="UTF-8" standalone="no"?>
<svg
   height="48px"
   viewBox="0 -960 960 960"
   width="48px"
   fill="#000000"
   version="1.1"
   id="svg1"
   sodipodi:docname="Circle.svg"
   xml:space="preserve"
   inkscape:version="1.4.3 (0d15f75, 2025-12-25)"
   xmlns:inkscape="http://www.inkscape.org/namespaces/inkscape"
   xmlns:sodipodi="http://sodipodi.sourceforge.net/DTD/sodipodi-0.dtd"
   xmlns="http://www.w3.org/2000/svg"
   xmlns:svg="http://www.w3.org/2000/svg"><defs
     id="defs1" /><sodipodi:namedview
     id="namedview1"
     pagecolor="#ffffff"
     bordercolor="#000000"
     borderopacity="0.25"
     inkscape:showpageshadow="2"
     inkscape:pageopacity="0.0"
     inkscape:pagecheckerboard="0"
     inkscape:deskcolor="#d1d1d1"
     inkscape:zoom="6.268207"
     inkscape:cx="3.5895432"
     inkscape:cy="36.613341"
     inkscape:window-width="1920"
     inkscape:window-height="1111"
     inkscape:window-x="-9"
     inkscape:window-y="-9"
     inkscape:window-maximized="1"
     inkscape:current-layer="svg1" /><path
     d="m 727.68429,-24.51122 114,-113 -114,-113 -42,42 43,43 c -18.66667,0.66667 -36.83333,-2.33333 -54.5,-9 -17.66667,-6.66667 -33.5,-17 -47.5,-31 -13.33333,-13.33333 -23.5,-28.66667 -30.5,-46 -7,-17.33333 -10.5,-34.66667 -10.5,-52 0,-11.33333 1.5,-22.66667 4.5,-34 3,-11.33333 7.16667,-22.33333 12.5,-33 l -44,-44 c -11.33333,16.66667 -19.66667,34.33333 -25,53 -5.33333,18.66667 -8,37.66667 -8,57 0,25.33333 5,50.33333 15,75 10,24.66667 24.66667,46.66667 44,66 19.33333,19.33333 41,33.83333 65,43.5 24,9.66667 48.66667,14.83333 74,15.5 l -38,38 z m 165,-170 c 11.33333,-16.66667 19.66667,-34.33333 25,-53 5.33333,-18.66667 8,-37.66667 8,-57 0,-25.33333 -4.83333,-50.5 -14.5,-75.5 -9.66667,-25 -24.16667,-47.16667 -43.5,-66.5 -19.33333,-19.33333 -41.16667,-33.66667 -65.5,-43 -24.33333,-9.33333 -49.16667,-14 -74.5,-14 l 38,-39 -42,-42 -114,113 114,113 42,-42 -44,-44 c 18,0 36.33333,3.5 55,10.5 18.66667,7 34.66667,17.16667 48,30.5 13.33333,13.33333 23.5,28.66667 30.5,46 7,17.33333 10.5,34.66667 10.5,52 0,11.33333 -1.5,22.66667 -4.5,34 -3,11.33333 -7.16667,22.33333 -12.5,33 z"
     id="path1"
     sodipodi:nodetypes="cccccsssssccsssssccccssssscccccccssssscc" /><g
     style="fill:#000000"
     id="g1"
     transform="translate(580,100)"><path
       id="path1-5"
       d="M -260 -980 C -276 -980 -289.99219 -973.99219 -301.99219 -961.99219 C -313.99219 -949.99219 -320 -936 -320 -920 L -320 -360 C -320 -344 -313.99219 -330.00781 -301.99219 -318.00781 C -289.99219 -306.00781 -276 -300 -260 -300 L -95 -300 L -95 -360 L -260 -360 L -260 -920 L 180 -920 L 180 -712.22656 L 240 -712.22656 L 240 -920 C 240 -936 233.99219 -949.99219 221.99219 -961.99219 C 209.99219 -973.99219 196 -980 180 -980 L -260 -980 z M -440 -860 L -440 -240 C -440 -224 -433.99219 -210.00781 -421.99219 -198.00781 C -409.99219 -186.00781 -396 -180 -380 -180 L -95 -180 L -95 -240 L -380 -240 L -380 -860 L -440 -860 z " /></g></svg>
