<?xml version="1.0" encoding="UTF-8" standalone="no"?>
<svg
   height="48px"
   viewBox="0 -960 960 960"
   width="48px"
   fill="#000000"
   version="1.1"
   id="svg1"
   sodipodi:docname="Tie.svg"
   xml:space="preserve"
   inkscape:version="1.4.3 (0d15f75, 2025-12-25)"
   xmlns:inkscape="http://www.inkscape.org/namespaces/inkscape"
   xmlns:sodipodi="http://sodipodi.sourceforge.net/DTD/sodipodi-0.dtd"
   xmlns="http://www.w3.org/2000/svg"
   xmlns:svg="http://www.w3.org/2000/svg"><defs
     id="defs1" /><sodipodi:namedview
     id="namedview1"
     pagecolor="#ffffff"
     bordercolor="#000000"
     borderopacity="0.25"
     inkscape:showpageshadow="2"
     inkscape:pageopacity="0.0"
     inkscape:pagecheckerboard="0"
     inkscape:deskcolor="#d1d1d1"
     inkscape:zoom="8.0000001"
     inkscape:cx="23.125"
     inkscape:cy="8.4374999"
     inkscape:window-width="1920"
     inkscape:window-height="1111"
     inkscape:window-x="-9"
     inkscape:window-y="-9"
     inkscape:window-maximized="1"
     inkscape:current-layer="svg1" /><g
     id="g3"
     transform="translate(-40,24.291199)"><g
       id="g2"
       transform="translate(3.0221369,25.936587)"><path
         id="path2"
         style="fill:#000000;stroke-width:0.133146"
         d="m 721.97078,-227.30782 c -0.47162,-0.003 -1.00901,0.11236 -1.58118,0.35888 -1.83071,0.78883 -11.81453,5.07107 -22.18752,9.51786 -107.46205,46.06772 -356.20414,43.73419 -452.02548,-4.24404 -17.51492,-8.76981 -21.64606,-6.32097 -7.10458,4.21283 39.39616,28.53842 113.44566,48.79515 199.71379,54.63147 25.92489,1.7539 95.37171,-1.04391 126.17148,-5.0814 39.52122,-5.18079 80.16809,-15.61627 108.72205,-27.91384 25.32388,-10.90649 50.03894,-25.66643 50.03894,-29.88504 0,-1.00968 -0.71014,-1.59014 -1.7475,-1.59672 z" /></g><g
       id="g1"
       transform="translate(20.002583,8.037779)"><path
         d="m 302.85363,-880.25941 c 6.42259,0 12.84519,0 19.46242,0 0.0354,48.93757 0.0688,97.87444 0.0883,146.81201 2.8e-4,0.72429 5.7e-4,1.44926 7e-4,2.19578 0.007,15.74511 0.0118,31.49021 0.0174,47.2353 0,7.72172 0.007,15.44343 0.008,23.16515 2.8e-4,0.76808 5.6e-4,1.53614 7e-4,2.32785 0.009,24.89869 0.0243,49.79739 0.0438,74.69608 0.0195,25.5903 0.0326,51.17991 0.0369,76.77022 6.3e-4,3.61584 0,7.23099 0,10.84683 1.4e-4,0.71176 2.9e-4,1.42353 4.2e-4,2.15685 0,11.44738 0.0125,22.89546 0.0243,34.34284 0.0125,11.51341 0.0167,23.02682 0.0139,34.53954 0,6.83757 0,13.67514 0.0153,20.512 0.007,4.57298 0.008,9.14595 0,13.71823 -0.007,2.60241 0,5.20411 0.007,7.80582 0.0424,12.34613 -0.0625,24.262 -4.21375,36.05066 -0.17565,0.51089 -0.3513,1.02178 -0.5323,1.54866 -5.05224,14.17559 -13.56898,26.69897 -23.77939,37.66395 -1.39719,1.50904 -2.73231,3.04796 -4.05653,4.62094 -22.31012,25.51941 -59.35636,43.53119 -92.79405,47.179 -3.39244,0.17586 -6.77139,0.22938 -10.1678,0.21965 -1.50972,0 -3.01848,0.0139 -4.52807,0.0348 -8.90739,0.0417 -17.65324,-1.09477 -26.05358,-4.20389 -0.48475,-0.17655 -0.96957,-0.35241 -1.46906,-0.53452 -14.39712,-5.45504 -26.36832,-15.47888 -32.85083,-29.57176 -7.66354,-18.77985 -5.30018,-40.54718 2.17694,-59.04969 6.27072,-14.78449 15.30588,-27.38988 26.3216,-38.95751 0.22716,-0.24537 0.22716,-0.24537 1.37663,-1.48818 24.68286,-25.89336 62.79759,-39.21122 97.91217,-40.347 13.47544,-0.26344 26.76355,1.29843 39.25064,6.55954 0.42352,0.17447 0.84696,0.34893 1.28327,0.52826 4.48157,2.00324 7.52382,4.59731 11.70615,7.639 0.22939,-153.45425 0.45876,-306.9085 0.6951,-465.01289 z"
         fill="#000000"
         id="path1-1"
         style="stroke-width:0.695086" /><path
         d="m 782.8536,-880.25941 c 6.4226,0 12.8452,0 19.4625,0 0.035,48.93757 0.069,97.87444 0.088,146.81201 3e-4,0.72429 6e-4,1.44926 7e-4,2.19578 0.01,15.74511 0.012,31.49021 0.017,47.2353 0,7.72172 0.01,15.44343 0.01,23.16515 3e-4,0.76808 6e-4,1.53614 7e-4,2.32785 0.01,24.89869 0.024,49.79739 0.044,74.69608 0.02,25.5903 0.033,51.17991 0.037,76.77022 7e-4,3.61584 0,7.23099 0,10.84683 2e-4,0.71176 3e-4,1.42353 5e-4,2.15685 0,11.44738 0.012,22.89546 0.024,34.34284 0.013,11.51341 0.017,23.02682 0.014,34.53954 0,6.83757 0,13.67514 0.015,20.512 0.01,4.57298 0.01,9.14595 0,13.71823 -0.01,2.60241 0,5.20411 0.01,7.80582 0.042,12.34613 -0.062,24.262 -4.2138,36.05066 -0.1756,0.51089 -0.3513,1.02178 -0.5323,1.54866 -5.0522,14.17559 -13.569,26.69897 -23.7794,37.66395 -1.3972,1.50904 -2.7323,3.04796 -4.0565,4.62094 -22.3101,25.51941 -59.3564,43.53119 -92.79405,47.179 -3.39244,0.17586 -6.77139,0.22938 -10.1678,0.21965 -1.50972,0 -3.01848,0.0139 -4.52807,0.0348 -8.90739,0.0417 -17.65324,-1.09477 -26.05358,-4.20389 -0.48475,-0.17655 -0.96957,-0.35241 -1.46906,-0.53452 -14.39712,-5.45504 -26.36832,-15.47888 -32.85083,-29.57176 -7.66354,-18.77985 -5.30018,-40.54718 2.17694,-59.04969 6.27072,-14.78449 15.30588,-27.38988 26.3216,-38.95751 0.22716,-0.24537 0.22716,-0.24537 1.37663,-1.48818 24.68286,-25.89336 62.79762,-39.21122 97.91222,-40.347 13.4754,-0.26344 26.7635,1.29843 39.2506,6.55954 0.4235,0.17447 0.847,0.34893 1.2833,0.52826 4.4815,2.00324 7.5238,4.59731 11.7061,7.639 0.2294,-153.45425 0.4588,-306.9085 0.6951,-465.01289 z"
         fill="#000000"
         id="path1"
         style="stroke-width:0.695086" /></g></g></svg>
