<?xml version="1.0" encoding="UTF-8" standalone="no"?>
<svg
   version="1.1"
   width="50"
   height="50"
   viewBox="0 0 1000.0 1000.0"
   id="svg1"
   sodipodi:docname="AddSecond.svg"
   inkscape:version="1.4.3 (0d15f75, 2025-12-25)"
   xmlns:inkscape="http://www.inkscape.org/namespaces/inkscape"
   xmlns:sodipodi="http://sodipodi.sourceforge.net/DTD/sodipodi-0.dtd"
   xmlns="http://www.w3.org/2000/svg"
   xmlns:svg="http://www.w3.org/2000/svg">
  <defs
     id="defs1" />
  <sodipodi:namedview
     id="namedview1"
     pagecolor="#ffffff"
     bordercolor="#000000"
     borderopacity="0.25"
     inkscape:showpageshadow="2"
     inkscape:pageopacity="0.0"
     inkscape:pagecheckerboard="0"
     inkscape:deskcolor="#d1d1d1"
     inkscape:zoom="8.51"
     inkscape:cx="14.923619"
     inkscape:cy="21.210341"
     inkscape:window-width="1920"
     inkscape:window-height="1111"
     inkscape:window-x="-9"
     inkscape:window-y="-9"
     inkscape:window-maximized="1"
     inkscape:current-layer="g2" />
  <g
     id="g2"
     transform="translate(0.15711671,-12.285951)">
    <path
       id="path1"
       d="m 418.12499,949.37645 -0.1172,-84.80468 c -6.01708,4.37604 -10.38844,8.09524 -16.83592,10.97656 l -1.875,0.78124 c -17.96484,7.56876 -37.05864,9.79292 -56.44532,9.41408 -50.51824,-1.63492 -105.34888,-20.79492 -140.85936,-58.04688 l -1.9922,-2.1094 c -15.848,-16.6416 -28.83,-34.78448 -37.85156,-56.05468 -10.75704,-26.61956 -14.1894,-57.9432 -3.16404,-84.96092 9.32616,-20.27548 26.55344,-34.69084 47.2656,-42.53908 l 2.1094,-0.78124 c 12.08524,-4.47348 24.68524,-6.1134 37.5,-6.05468 2.1718,0.024 4.35144,0.0812 6.5234,0.0784 4.88636,-0.016 9.72876,0.0596 14.6094,0.3124 48.10576,5.24812 101.41872,31.13748 133.5156,67.8516 1.90512,2.26284 3.8102,4.46912 5.82032,6.6406 4.33108,4.65092 8.46256,9.52604 12.30468,14.57032 l -0.625,-420.07812 c -6.01708,4.37604 -10.38844,8.09524 -16.83592,10.97656 l -1.875,0.78124 c -17.96484,7.5688 -37.05864,9.79292 -56.44532,9.41408 -50.51824,-1.63488 -105.34888,-20.79492 -140.85936,-58.04688 l -1.9922,-2.10936 c -15.848,-16.6416 -28.83,-34.78452 -37.85156,-56.05468 -10.75704,-26.6196 -14.1894,-57.94324 -3.16404,-84.96096 9.32616,-20.27544 26.55292,-34.690881 47.2656,-42.539041 l 2.1094,-0.78124 c 12.08524,-4.47348 24.68524,-6.11344 37.5,-6.05472 2.1718,0.024 4.35144,0.0812 6.5234,0.078 4.8864,-0.016 9.72876,0.0596 14.6094,0.3124 48.10576,5.24808 101.41872,31.137481 133.5156,67.851561 1.90512,2.26284 3.8102,4.46916 5.82032,6.64064 14.68944,15.77416 26.95028,33.8246 34.21876,54.21872 l 0.78124,2.22656 c 5.9722,16.95916 6.11532,34.07416 6.05468,51.83596 -0.016,3.74348 -0.004,7.50648 0,11.25 0.008,6.5786 -0.028,13.14796 -0.04,19.72656 -0.02,9.83672 -0.002,19.69452 0,29.53124 0.004,16.56372 -0.02,33.12384 -0.04,49.68752 -0.02,16.46956 0.004,32.9054 0,49.375 l -0.04,3.125 c -10e-4,5.20176 8.8e-4,10.38416 0,15.58592 -0.004,36.81552 -0.008,73.65328 -0.04,110.46876 -0.028,35.821 -0.0652,71.63992 -0.078,107.46092 v 3.3594 c -0.004,11.10884 0.004,22.21144 0,33.32032 -0.008,22.65212 -0.028,45.27752 -0.04,67.92968 v 3.16404 c -0.004,12.45692 0.004,24.92592 0,37.38284 0.28,6.15032 0.2948,12.34676 0.2736,18.6328 -0.012,3.74348 -0.004,7.50648 0,11.25 0.008,6.5786 -0.028,13.14796 -0.04,19.72656 -0.02,9.83672 -0.002,19.69452 0,29.53124 0.004,16.56368 -0.02,33.12384 -0.04,49.68752 -0.008,6.94096 -0.032,13.88624 -0.04,20.82032 z"
       style="stroke-width:1" />
    <text
       xml:space="preserve"
       style="font-size:480px;font-family:sans-serif;-inkscape-font-specification:sans-serif;writing-mode:lr-tb;direction:ltr;fill:#000000;stroke-width:56.25"
       x="570.90955"
       y="702.12354"
       id="text2"><tspan
         sodipodi:role="line"
         id="tspan2"
         style="stroke-width:56.25"
         x="570.90955"
         y="702.12354">2</tspan></text>
  </g>
</svg>
