<?xml version="1.0" encoding="UTF-8" standalone="no"?>
<svg
   version="1.1"
   width="50"
   height="50"
   viewBox="0 0 1000.0 1000.0"
   id="svg1"
   sodipodi:docname="HalfDuration.svg"
   xml:space="preserve"
   inkscape:version="1.4.3 (0d15f75, 2025-12-25)"
   xmlns:inkscape="http://www.inkscape.org/namespaces/inkscape"
   xmlns:sodipodi="http://sodipodi.sourceforge.net/DTD/sodipodi-0.dtd"
   xmlns="http://www.w3.org/2000/svg"
   xmlns:svg="http://www.w3.org/2000/svg"><defs
     id="defs1" /><sodipodi:namedview
     id="namedview1"
     pagecolor="#ffffff"
     bordercolor="#000000"
     borderopacity="0.25"
     inkscape:showpageshadow="2"
     inkscape:pageopacity="0.0"
     inkscape:pagecheckerboard="0"
     inkscape:deskcolor="#d1d1d1"
     inkscape:zoom="8.51"
     inkscape:cx="14.101058"
     inkscape:cy="30.728555"
     inkscape:window-width="1920"
     inkscape:window-height="1111"
     inkscape:window-x="-9"
     inkscape:window-y="-9"
     inkscape:window-maximized="1"
     inkscape:current-layer="svg1" /><g
     id="g2"
     transform="translate(-3.5724537,-0.18144537)"><path
       d="m 379,51 c 9.24,0 18.48,0 28,0 0.0512,70.4047 0.0991,140.80941 0.12703,211.21413 4.1e-4,1.04227 8.3e-4,2.08453 0.001,3.15839 0.009,22.65214 0.0173,45.30429 0.0249,67.95643 0.004,11.10886 0.008,22.21771 0.0116,33.32657 4e-4,1.10545 7.9e-4,2.21091 10e-4,3.34986 0.0128,35.82102 0.0353,71.64203 0.0629,107.46305 0.0283,36.81549 0.0468,73.63097 0.0529,110.44647 8.7e-4,5.20177 0.002,10.40355 0.003,15.60532 2e-4,1.02377 4.1e-4,2.04754 6.1e-4,3.10233 0.004,16.46958 0.0175,32.93913 0.0353,49.4087 0.0177,16.56368 0.0244,33.12735 0.02,49.69104 -0.002,9.83675 0.004,19.67341 0.0219,29.51013 0.0113,6.5786 0.0116,13.15713 0.003,19.73573 -0.005,3.7435 -0.004,7.48683 0.009,11.23031 0.0606,17.76179 -0.09,34.90491 -6.06215,51.86404 -0.25274,0.73549 -0.50547,1.47098 -0.76587,2.22876 -7.26848,20.39412 -19.52126,38.41112 -34.21069,54.1853 -2.01012,2.17147 -3.93085,4.38559 -5.83594,6.64844 -32.0969,36.71409 -85.39424,62.62692 -133.5,67.875 -4.88064,0.25265 -9.74181,0.33044 -14.62817,0.31567 -2.17199,-0.003 -4.34259,0.0204 -6.51441,0.0457 -12.81475,0.0587 -25.39717,-1.57536 -37.48242,-6.04883 -0.69746,-0.25346 -1.39493,-0.50692 -2.11353,-0.76807 C 145.54878,934.69625 128.32619,920.27547 119,900 107.97465,872.98228 111.37478,841.66646 122.13184,815.04687 131.15339,793.7767 144.15199,775.64161 160,759 c 0.32678,-0.3532 0.32678,-0.3532 1.98047,-2.14063 35.5105,-37.25195 90.34502,-56.41197 140.86328,-58.04687 19.38667,-0.37885 38.50392,1.86873 56.46875,9.4375 0.60924,0.25096 1.21849,0.50193 1.84619,0.7605 6.44748,2.88132 10.82423,6.61344 16.84131,10.9895 0.33,-220.77 0.66,-441.54 1,-669 z"
       fill="#000000"
       id="path1" /><path
       style="fill:#000000;stroke-width:0.0486083"
       d="m 501.64669,719.59082 c 0,-0.69162 294.01801,-421.52132 295.98491,-423.64493 0.135,-0.14575 8.4288,-0.14575 18.4308,0 l 18.1855,0.26503 -93.51301,133.67273 C 689.30271,503.40363 622.52401,598.88244 592.33781,642.05869 l -54.88406,78.50237 h -17.90353 c -11.26384,0 -17.90353,-0.3598 -17.90353,-0.97024 z m 239.15267,-26.41281 v -16.68923 l 7.39784,-11.10864 c 13.1495,-19.74544 28.2939,-36.04142 58.0464,-62.4603 20.7426,-18.41858 32.4022,-32.53781 39.4557,-47.77903 4.7903,-10.35059 6.1949,-16.52211 6.1184,-26.88215 -0.095,-12.89427 -2.9155,-20.52385 -10.3395,-27.9713 -7.8489,-7.87359 -14.1372,-10.16715 -29.7108,-10.83669 -17.8449,-0.7671 -32.8314,2.86776 -55.17034,13.38118 l -9.96471,4.68972 v -15.88111 -15.88117 l 8.0204,-2.89843 c 34.56605,-12.49162 67.76275,-14.93129 93.08485,-6.84096 42.682,13.63681 59.5534,57.06547 37.4936,96.51214 -8.0591,14.41093 -24.9389,32.96773 -43.8127,48.16536 -22.6395,18.22978 -32.6554,28.08593 -41.7234,41.05785 -4.9529,7.08523 -9.906,17.06207 -10.8718,21.89885 l -0.6309,3.15952 h 53.1046 53.1045 v 16.52681 16.52681 H 817.6004 740.79936 Z M 548.31065,444.9522 c 0,-103.41039 0,-103.53563 -1.97422,-103.53563 -1.58653,0 -44.26628,10.30562 -50.76573,12.25812 -1.57082,0.47186 -1.70131,-0.68439 -1.70131,-15.07163 v -15.58269 l 3.64562,-0.95079 c 21.63383,-5.64232 88.66861,-22.45609 89.53017,-22.45609 0.845,0 1.12423,30.90576 1.12423,124.43717 v 124.43712 h -19.92938 -19.92938 z"
       id="path2" /></g></svg>
