<?xml version="1.0" encoding="UTF-8" standalone="no"?>
<svg
   version="1.1"
   width="50"
   height="50"
   viewBox="0 0 1000.0 1000.0"
   id="svg1"
   sodipodi:docname="NoteDown.svg"
   xml:space="preserve"
   inkscape:version="1.4.3 (0d15f75, 2025-12-25)"
   xmlns:inkscape="http://www.inkscape.org/namespaces/inkscape"
   xmlns:sodipodi="http://sodipodi.sourceforge.net/DTD/sodipodi-0.dtd"
   xmlns="http://www.w3.org/2000/svg"
   xmlns:svg="http://www.w3.org/2000/svg"><defs
     id="defs1" /><sodipodi:namedview
     id="namedview1"
     pagecolor="#ffffff"
     bordercolor="#000000"
     borderopacity="0.25"
     inkscape:showpageshadow="2"
     inkscape:pageopacity="0.0"
     inkscape:pagecheckerboard="0"
     inkscape:deskcolor="#d1d1d1"
     inkscape:zoom="8.51"
     inkscape:cx="11.515864"
     inkscape:cy="28.848414"
     inkscape:window-width="1920"
     inkscape:window-height="1111"
     inkscape:window-x="-9"
     inkscape:window-y="-9"
     inkscape:window-maximized="1"
     inkscape:current-layer="g2" /><g
     id="g2"
     transform="translate(-32.503102,-109.8662)"><path
       id="path1"
       d="m 400.78125,301.64426 c -2.17182,0.0253 -4.35145,0.0421 -6.52344,0.0391 -4.88636,-0.0148 -9.72873,0.0599 -14.60937,0.3125 -48.10576,5.24808 -101.41924,31.17654 -133.51563,67.89062 -1.90509,2.26285 -3.81019,4.46916 -5.82031,6.64063 -14.68943,15.77419 -26.95027,33.78557 -34.21875,54.17969 l -0.74219,2.22656 c -5.97215,16.95913 -6.15435,34.11321 -6.09375,51.875 0.013,3.74348 0.0441,7.46745 0.0391,11.21094 -0.009,6.5786 -0.0113,13.14796 0,19.72656 0.0179,9.83673 0.002,19.6945 0,29.53125 -0.004,16.56369 0.0214,33.12382 0.0391,49.6875 0.0178,16.46957 0.0351,32.94449 0.0391,49.41406 v 3.08594 c 0.001,5.20178 -8.7e-4,10.42322 0,15.625 0.006,36.81549 0.0108,73.6142 0.0391,110.42969 0.0276,35.82101 0.0653,71.63991 0.0781,107.46093 2.1e-4,1.13895 -4e-4,2.25393 0,3.35938 0.004,11.10886 -0.004,22.21145 0,33.32031 4e-5,0.13874 -5e-5,0.29094 0,0.42969 h 28.59375 l 0.54687,-387.10938 c 6.01708,4.37606 10.42752,8.13431 16.875,11.01563 l 1.83594,0.74218 c 17.96483,7.56879 37.05864,9.83198 56.44531,9.45313 50.51826,-1.63489 105.38794,-20.79493 140.89844,-58.04687 l 1.95312,-2.14844 c 15.84802,-16.64161 28.86908,-34.78452 37.89063,-56.05469 10.75706,-26.61958 14.15035,-57.94321 3.125,-84.96094 -9.32619,-20.27546 -26.55294,-34.69088 -47.26563,-42.53906 l -2.10937,-0.74219 c -12.08525,-4.47347 -24.68525,-6.11338 -37.5,-6.05468 z" /><path
       d="M 700.54056,463.37688 564.80368,327.64 535.32546,357.11821 700.54056,522.33331 865.75565,357.11821 836.27744,327.64 Z"
       id="path1-8"
       style="fill:#000000;stroke-width:0.68554" /></g></svg>
