<?xml version="1.0" encoding="UTF-8" standalone="no"?>
<svg
   version="1.1"
   width="50"
   height="50"
   viewBox="0 0 1000.0 1000.0"
   id="svg1"
   sodipodi:docname="RepitchNote.svg"
   xml:space="preserve"
   inkscape:version="1.4.3 (0d15f75, 2025-12-25)"
   xmlns:inkscape="http://www.inkscape.org/namespaces/inkscape"
   xmlns:sodipodi="http://sodipodi.sourceforge.net/DTD/sodipodi-0.dtd"
   xmlns="http://www.w3.org/2000/svg"
   xmlns:svg="http://www.w3.org/2000/svg"><defs
     id="defs1" /><sodipodi:namedview
     id="namedview1"
     pagecolor="#ffffff"
     bordercolor="#000000"
     borderopacity="0.25"
     inkscape:showpageshadow="2"
     inkscape:pageopacity="0.0"
     inkscape:pagecheckerboard="0"
     inkscape:deskcolor="#d1d1d1"
     inkscape:zoom="8.51"
     inkscape:cx="33.019976"
     inkscape:cy="24.618096"
     inkscape:window-width="1920"
     inkscape:window-height="1111"
     inkscape:window-x="-9"
     inkscape:window-y="-9"
     inkscape:window-maximized="1"
     inkscape:current-layer="svg1" /><path
     id="path1"
     d="m 393.75,389.26559 c -2.17182,0.0253 -4.35145,0.0421 -6.52344,0.0391 -4.88636,-0.0148 -9.72873,0.0598 -14.60937,0.3125 -48.10576,5.24808 -101.41873,31.13747 -133.51563,67.85156 -1.90509,2.26285 -3.81019,4.50822 -5.82031,6.67969 -14.68943,15.77418 -26.95027,33.78556 -34.21875,54.17968 l -0.78125,2.22657 c -5.97215,16.95913 -6.11529,34.11321 -6.05469,51.875 0.013,3.74348 0.005,7.46743 0,11.21093 -0.009,6.57861 -0.0113,13.14797 0,19.72657 0.0179,9.83672 0.0411,19.6945 0.0391,29.53125 -0.004,16.56369 -0.0177,33.12382 0,49.6875 0.0178,16.46957 0.0351,32.94448 0.0391,49.41406 v 3.08594 c 0.001,5.20177 -8.7e-4,10.42323 0,15.625 0.006,36.81551 0.0498,73.61418 0.0781,110.42968 0.01,12.79152 -0.008,25.56787 0,38.35938 h 28.78907 l 0.42968,-280.89844 c 6.01708,4.37606 10.38846,8.13431 16.83594,11.01563 l 1.83594,0.74219 c 17.96483,7.56877 37.0977,9.83197 56.48437,9.45312 50.51826,-1.6349 105.34888,-20.79493 140.85938,-58.04688 l 1.99219,-2.14843 c 15.848,-16.64161 28.83001,-34.78452 37.85156,-56.05469 10.75706,-26.61959 14.15035,-57.94322 3.125,-84.96094 -9.32619,-20.27547 -26.55345,-34.69084 -47.26563,-42.53906 l -2.10937,-0.78125 c -12.08525,-4.47347 -24.64619,-6.07433 -37.46094,-6.01563 z" /><g
     style="fill:#000000"
     id="g1"
     transform="rotate(90,100.25,120.75)"><path
       d="m 266,-293 -186,-186 186,-186 42,43 -113,112 h 569 l -113,-112 43,-43 185,186 -186,186 -43,-43 114,-113 H 194 l 114,113 z"
       id="path1-8" /></g></svg>
