<?xml version="1.0" encoding="UTF-8" standalone="no"?>
<svg
   height="48px"
   viewBox="0 -960 960 960"
   width="48px"
   fill="#000000"
   version="1.1"
   id="svg1"
   sodipodi:docname="SidePanel.svg"
   xml:space="preserve"
   inkscape:version="1.4.3 (0d15f75, 2025-12-25)"
   xmlns:inkscape="http://www.inkscape.org/namespaces/inkscape"
   xmlns:sodipodi="http://sodipodi.sourceforge.net/DTD/sodipodi-0.dtd"
   xmlns="http://www.w3.org/2000/svg"
   xmlns:svg="http://www.w3.org/2000/svg"><defs
     id="defs1" /><sodipodi:namedview
     id="namedview1"
     pagecolor="#ffffff"
     bordercolor="#000000"
     borderopacity="0.25"
     inkscape:showpageshadow="2"
     inkscape:pageopacity="0.0"
     inkscape:pagecheckerboard="0"
     inkscape:deskcolor="#d1d1d1"
     inkscape:zoom="6.268207"
     inkscape:cx="11.486538"
     inkscape:cy="18.426322"
     inkscape:window-width="1920"
     inkscape:window-height="1111"
     inkscape:window-x="-9"
     inkscape:window-y="-9"
     inkscape:window-maximized="1"
     inkscape:current-layer="g1" /><path
     id="path1"
     d="M 120 -840 L 120 -450 L 450 -450 L 450 -840 L 120 -840 z M 510 -840 L 510 -570 L 840 -570 L 840 -840 L 510 -840 z M 180 -780 L 390 -780 L 390 -510 L 180 -510 L 180 -780 z M 570 -780 L 780 -780 L 780 -630 L 570 -630 L 570 -780 z M 120 -390 L 120 -120 L 450 -120 L 450 -390 L 120 -390 z M 180 -330 L 390 -330 L 390 -180 L 180 -180 L 180 -330 z " /><g
     style="fill:#000000"
     id="g1"
     transform="matrix(0.5189051,0,0,0.5189051,421.529,-15.038363)"><path
       d="m 169.94997,-458.77521 q 43.5,-43.5 106.5,-43.5 63,0 106.5,43.5 43.5,43.5 43.5,106.5 0,63 -43.5,106.5 -43.5,43.5 -106.5,43.5 -63,0 -106.5,-43.5 -43.5,-43.5 -43.5,-106.5 0,-63 43.5,-106.5 z m 42.5,170.5 q 26,26 64,26 38,0 64,-26 26,-26 26,-64 0,-38 -26,-64 -26,-26 -64,-26 -38,0 -64,26 -26,26 -26,64 0,38 26,64 z m 34,-654 h 60 v 360 h -60 z m 303.5,23.5 q 43.5,-43.5 106.5,-43.5 63,0 106.5,43.5 43.5,43.5 43.5,106.5 0,63 -43.5,106.5 -43.5,43.5 -106.5,43.5 -63,0 -106.5,-43.5 -43.5,-43.5 -43.5,-106.5 0,-63 43.5,-106.5 z m 42.5,170.5 q 26,26 64,26 38,0 64,-26 26,-26 26,-64 0,-38 -26,-64 -26,-26 -64,-26 -38,0 -64,26 -26,26 -26,64 0,38 26,64 z m 34,166 h 60 v 360 h -60 z m -350,230 z m 380,-460 z"
       id="path1-8" /></g></svg>
