<?xml version="1.0" encoding="UTF-8" standalone="no"?>
<svg
   height="48px"
   viewBox="0 -960 960 960"
   width="48px"
   fill="#000000"
   version="1.1"
   id="svg1"
   sodipodi:docname="Slur.svg"
   xml:space="preserve"
   inkscape:version="1.4.3 (0d15f75, 2025-12-25)"
   xmlns:inkscape="http://www.inkscape.org/namespaces/inkscape"
   xmlns:sodipodi="http://sodipodi.sourceforge.net/DTD/sodipodi-0.dtd"
   xmlns="http://www.w3.org/2000/svg"
   xmlns:svg="http://www.w3.org/2000/svg"><defs
     id="defs1" /><sodipodi:namedview
     id="namedview1"
     pagecolor="#ffffff"
     bordercolor="#000000"
     borderopacity="0.25"
     inkscape:showpageshadow="2"
     inkscape:pageopacity="0.0"
     inkscape:pagecheckerboard="0"
     inkscape:deskcolor="#d1d1d1"
     inkscape:zoom="8"
     inkscape:cx="16.5"
     inkscape:cy="22.5625"
     inkscape:window-width="1920"
     inkscape:window-height="1111"
     inkscape:window-x="-9"
     inkscape:window-y="-9"
     inkscape:window-maximized="1"
     inkscape:current-layer="svg1" /><path
     id="path2"
     style="fill:#000000;stroke-width:0.133146"
     d="m 729.85938,-259.18239 c -0.46393,0.0849 -0.97043,0.29833 -1.48667,0.64709 -1.65176,1.116 -10.66331,7.18281 -20.02659,13.48377 -97.00156,65.27652 -341.82584,109.31222 -444.9065,80.02029 -18.84183,-5.3542 -22.44458,-2.17877 -6.19562,5.46234 44.02211,20.7015 120.54875,26.81201 206.39439,16.47872 25.79794,-3.10533 93.50849,-18.7887 123.01736,-28.49202 37.86476,-12.451 75.85678,-30.27439 101.62068,-47.67498 22.84943,-15.43224 44.38298,-34.5371 43.59726,-38.6819 -0.18805,-0.99201 -0.99387,-1.43005 -2.01431,-1.24331 z" /><g
     id="g2"
     transform="translate(0,25.936587)" /><g
     id="g1"
     transform="translate(38.754177,-40)"><path
       d="m 307.37295,-810.47743 c 6.57912,0 13.15824,0 19.93673,0 0.0363,50.1302 0.0705,100.25969 0.0904,150.38989 2.8e-4,0.74193 5.6e-4,1.48457 7.1e-4,2.24929 0.007,16.12882 0.0121,32.25763 0.0178,48.38645 0,7.9099 0.007,15.8198 0.009,23.7297 2.9e-4,0.78678 5.7e-4,1.57357 7.1e-4,2.38457 0.009,25.50549 0.0249,51.01098 0.0449,76.51647 0.0199,26.21395 0.0335,52.4272 0.0377,78.64115 6.4e-4,3.70396 0,7.40721 0,11.11117 1.4e-4,0.72912 2.8e-4,1.45823 4.3e-4,2.20942 0,11.72636 0.0128,23.45343 0.0249,35.17979 0.0128,11.794 0.0171,23.588 0.0142,35.38129 0,7.0042 0,14.0084 0.0157,21.01189 0.008,4.68442 0.009,9.36884 0,14.05255 -0.007,2.66582 0,5.33094 0.007,7.99605 0.0434,12.64701 -0.0641,24.85328 -4.31644,36.92924 -0.17993,0.52334 -0.35986,1.04668 -0.54527,1.58639 -5.17536,14.52106 -13.89968,27.34964 -24.35892,38.58185 -1.43124,1.54581 -2.7989,3.12224 -4.15538,4.73356 -22.85383,26.14133 -60.8029,44.59206 -95.05549,48.32878 -3.47512,0.18014 -6.93642,0.23496 -10.41559,0.225 -1.54652,0 -3.09205,0.0142 -4.63843,0.0356 -9.12447,0.0427 -18.08347,-1.12144 -26.68852,-4.30634 -0.49656,-0.18085 -0.9932,-0.36099 -1.50486,-0.54755 -14.74799,-5.58798 -27.01093,-15.85611 -33.65143,-30.29244 -7.8503,-19.23753 -5.42934,-41.53534 2.23,-60.48876 6.42354,-15.1448 15.67888,-28.05739 26.96307,-39.90693 0.23269,-0.25135 0.23269,-0.25135 1.41017,-1.52445 25.28441,-26.5244 64.32801,-40.16682 100.29836,-41.33027 13.80383,-0.26986 27.41578,1.33006 40.20719,6.71939 0.43384,0.17872 0.8676,0.35744 1.31454,0.54114 4.59079,2.05206 7.70719,4.70934 11.99145,7.82517 0.23497,-157.19402 0.46994,-314.38803 0.71202,-476.3455 z"
       fill="#000000"
       id="path1-8"
       style="stroke-width:0.712026" /><path
       d="m 744.87295,-880.47743 c 6.57912,0 13.15824,0 19.93673,0 0.0363,50.1302 0.0705,100.25969 0.0904,150.38989 2.8e-4,0.74193 5.6e-4,1.48457 7.1e-4,2.24929 0.007,16.12882 0.0121,32.25763 0.0178,48.38645 0,7.9099 0.007,15.8198 0.009,23.7297 2.9e-4,0.78678 5.7e-4,1.57357 7.1e-4,2.38457 0.009,25.50549 0.0249,51.01098 0.0449,76.51647 0.0199,26.21395 0.0335,52.4272 0.0377,78.64115 6.4e-4,3.70396 0,7.40721 0,11.11117 1.4e-4,0.72912 2.8e-4,1.45823 4.3e-4,2.20942 0,11.72636 0.0128,23.45343 0.0249,35.17979 0.0128,11.794 0.0171,23.588 0.0142,35.38129 0,7.0042 0,14.0084 0.0157,21.01189 0.008,4.68442 0.009,9.36884 0,14.05255 -0.007,2.66582 0,5.33094 0.007,7.99605 0.0434,12.64701 -0.0641,24.85328 -4.31644,36.92924 -0.17993,0.52334 -0.35986,1.04668 -0.54527,1.58639 -5.17536,14.52106 -13.89968,27.34964 -24.35892,38.58185 -1.43124,1.54581 -2.7989,3.12224 -4.15538,4.73356 -22.85383,26.14133 -60.8029,44.59206 -95.05549,48.32878 -3.47512,0.18014 -6.93642,0.23496 -10.41559,0.225 -1.54652,0 -3.09205,0.0142 -4.63843,0.0356 -9.12447,0.0427 -18.08347,-1.12144 -26.68852,-4.30634 -0.49656,-0.18085 -0.9932,-0.36099 -1.50486,-0.54755 -14.74799,-5.58798 -27.01093,-15.85611 -33.65143,-30.29244 -7.8503,-19.23753 -5.42934,-41.53534 2.23,-60.48876 6.42354,-15.1448 15.67888,-28.05739 26.96307,-39.90693 0.23269,-0.25135 0.23269,-0.25135 1.41017,-1.52445 25.28441,-26.5244 64.32801,-40.16682 100.29836,-41.33027 13.80383,-0.26986 27.41578,1.33006 40.20719,6.71939 0.43384,0.17872 0.8676,0.35744 1.31454,0.54114 4.59079,2.05206 7.70719,4.70934 11.99145,7.82517 0.23497,-157.19402 0.46994,-314.38803 0.71202,-476.3455 z"
       fill="#000000"
       id="path1"
       style="stroke-width:0.712026" /></g></svg>
